<svg width="434" height="63" viewBox="0 0 434 63" fill="none" xmlns="http://www.w3.org/2000/svg">
<path fill-rule="evenodd" clip-rule="evenodd" d="M26.1176 51.6141C32.852 51.6141 38.0871 50.1517 41.823 47.2269C45.5589 44.3021 47.4268 40.2344 47.4268 35.0238C47.4268 30.0591 45.7555 26.2495 42.4129 23.595C39.0703 20.9406 34.2775 19.6134 28.0347 19.6134H14.6888V11.2814H36.0717L43.4452 0H0.310547V51.6141H26.1176ZM14.6888 41.1438V30.0099H25.159C30.173 30.0099 32.68 31.8287 32.68 35.4663C32.68 37.285 32.0409 38.686 30.7629 39.6691C29.4848 40.6522 27.6169 41.1438 25.159 41.1438H14.6888ZM69.5472 38.1207V51.6141H54.9478V0H78.5428C83.2126 0 87.268 0.774211 90.709 2.32263C94.1499 3.87106 96.8043 6.08309 98.6723 8.95873C100.54 11.8344 101.474 15.2139 101.474 19.0972C101.474 22.9806 100.54 26.3478 98.6723 29.1988C96.8043 32.0499 94.1499 34.2496 90.709 35.7981C87.268 37.3465 83.2126 38.1207 78.5428 38.1207H69.5472ZM69.5472 26.6181V11.5026H77.658C80.6565 11.5026 82.9177 12.1662 84.4415 13.4934C85.9654 14.8206 86.7273 16.6886 86.7273 19.0972C86.7273 21.5059 85.9654 23.3615 84.4415 24.6642C82.9177 25.9668 80.6565 26.6181 77.658 26.6181H69.5472ZM143.06 21.383L121.825 51.6141H108.037V0H122.415V30.3048L143.724 0H157.439V51.6141H143.06V21.383ZM182.877 51.6141V11.5763H200.352L206.325 0H168.499V51.6141H182.877ZM216.5 41.5862L212.444 51.6141H197.55L220.334 0H234.712L257.57 51.6141H242.381L238.325 41.5862H216.5ZM220.776 30.821L227.413 14.3045L234.049 30.821H220.776ZM273.128 51.6141V62.0106H267.082L259.708 40.0378H261.552C264.599 39.9886 266.75 37.8995 268.003 33.7704C269.257 29.6412 270.031 23.6933 270.326 15.9266L270.916 0H312.502V40.0378H319.507V62.0106H306.161V51.6141H273.128ZM298.124 40.0378H278.584C280.01 37.9732 281.067 35.0238 281.755 31.1897C282.443 27.3555 282.885 22.6856 283.082 17.1801L283.303 11.5763H298.124V40.0378ZM361.535 21.383L340.3 51.6141H326.512V0H340.89V30.3048L362.199 0H375.914V51.6141H361.535V21.383ZM401.573 51.6141V38.1207H410.569C415.239 38.1207 419.294 37.3465 422.735 35.7981C426.176 34.2496 428.83 32.0499 430.698 29.1988C432.566 26.3478 433.5 22.9806 433.5 19.0972C433.5 15.2139 432.566 11.8344 430.698 8.95873C428.83 6.08309 426.176 3.87106 422.735 2.32263C419.294 0.774211 415.239 0 410.569 0H386.974V51.6141H401.573ZM401.573 11.5026V26.6181H409.684C412.683 26.6181 414.944 25.9668 416.468 24.6642C417.991 23.3615 418.753 21.5059 418.753 19.0972C418.753 16.6886 417.991 14.8206 416.468 13.4934C414.944 12.1662 412.683 11.5026 409.684 11.5026H401.573Z" fill="#A5FF14"/>
</svg>
