<svg width="214" height="31" viewBox="0 0 214 31" fill="none" xmlns="http://www.w3.org/2000/svg">
<path fill-rule="evenodd" clip-rule="evenodd" d="M12.734 25.4681C16.057 25.4681 18.6402 24.7465 20.4836 23.3033C22.327 21.8601 23.2487 19.853 23.2487 17.2819C23.2487 14.8321 22.424 12.9523 20.7747 11.6426C19.1253 10.3328 16.7604 9.67787 13.68 9.67787H7.09468V5.5666H17.6457L21.284 0H0V25.4681H12.734ZM7.09468 20.3017V14.8079H12.2611C14.7351 14.8079 15.9721 15.7053 15.9721 17.5002C15.9721 18.3977 15.6568 19.0889 15.0262 19.574C14.3955 20.0591 13.4738 20.3017 12.2611 20.3017H7.09468ZM34.1636 18.81V25.4681H26.9598V0H38.6023C40.9066 0 42.9077 0.382021 44.6055 1.14606C46.3034 1.91011 47.6132 3.0016 48.5349 4.42053C49.4566 5.83947 49.9174 7.50702 49.9174 9.42319C49.9174 11.3394 49.4566 13.0009 48.5349 14.4077C47.6132 15.8145 46.3034 16.8999 44.6055 17.6639C42.9077 18.428 40.9066 18.81 38.6023 18.81H34.1636ZM34.1636 13.1343V5.67574H38.1657C39.6453 5.67574 40.7611 6.00319 41.513 6.65808C42.2649 7.31298 42.6409 8.23468 42.6409 9.42319C42.6409 10.6117 42.2649 11.5273 41.513 12.1701C40.7611 12.8129 39.6453 13.1343 38.1657 13.1343H34.1636ZM70.4374 10.5511L59.9591 25.4681H53.1555V0H60.2502V14.9534L70.7649 0H77.5321V25.4681H70.4374V10.5511ZM90.0843 25.4681V5.71213H98.707L101.654 0H82.9896V25.4681H90.0843ZM106.675 20.52L104.674 25.4681H97.3245L108.567 0H115.661L126.94 25.4681H119.445L117.444 20.52H106.675ZM108.785 15.2081L112.06 7.0583L115.334 15.2081H108.785ZM134.617 25.4681V30.5981H131.634L127.995 19.756H128.905C130.409 19.7317 131.47 18.7009 132.088 16.6634C132.707 14.626 133.089 11.6911 133.234 7.85872L133.526 0H154.046V19.756H157.502V30.5981H150.917V25.4681H134.617ZM146.951 19.756H137.309C138.013 18.7372 138.534 17.2819 138.874 15.39C139.213 13.4981 139.432 11.1938 139.529 8.47723L139.638 5.71213H146.951V19.756ZM178.24 10.5511L167.762 25.4681H160.958V0H168.053V14.9534L178.568 0H185.335V25.4681H178.24V10.5511ZM197.996 25.4681V18.81H202.435C204.739 18.81 206.74 18.428 208.438 17.6639C210.136 16.8999 211.446 15.8145 212.367 14.4077C213.289 13.0009 213.75 11.3394 213.75 9.42319C213.75 7.50702 213.289 5.83947 212.367 4.42053C211.446 3.0016 210.136 1.91011 208.438 1.14606C206.74 0.382021 204.739 0 202.435 0H190.792V25.4681H197.996ZM197.996 5.67574V13.1343H201.998C203.478 13.1343 204.594 12.8129 205.346 12.1701C206.097 11.5273 206.473 10.6117 206.473 9.42319C206.473 8.23468 206.097 7.31298 205.346 6.65808C204.594 6.00319 203.478 5.67574 201.998 5.67574H197.996Z" fill="white"/>
</svg>
