<svg width="300" height="63" viewBox="0 0 300 63" fill="none" xmlns="http://www.w3.org/2000/svg">
<path fill-rule="evenodd" clip-rule="evenodd" d="M296.742 11.6921L288.971 6.89826H291.948C295.227 6.86159 298.064 4.6103 298.846 1.4262C298.933 1.08237 298.857 0.717523 298.639 0.437548C298.412 0.150147 298.062 -0.0120796 297.696 0.000702629H281.602C279.062 0.000702629 277.003 2.05946 277.003 4.59907H273.555C273.428 4.59907 260.909 4.78301 260.909 20.6934C260.968 25.1156 261.744 29.499 263.208 33.6723C264.082 36.1593 264.608 38.7551 264.772 41.386C264.788 42.4471 264.722 48.0681 264.576 49.1192C264.444 50.0956 264.252 51.0631 264.002 52.0162C263.715 53.0521 263.928 54.1624 264.577 55.019C265.226 55.8756 266.238 56.3806 267.312 56.3846C267.886 56.3856 268.451 56.2433 268.956 55.9708C269.78 55.5231 270.386 54.7594 270.635 53.8555C271.017 52.4442 271.297 51.0074 271.474 49.556C271.704 47.9379 271.75 41.7386 271.612 40.11C271.331 37.2303 270.709 34.394 269.761 31.6605C268.525 28.1335 267.865 24.4303 267.807 20.6934C267.807 11.876 273.014 11.4966 273.555 11.4966H278.153V14.4741C274.681 15.8784 272.408 19.2476 272.405 22.9926V58.5918C272.406 58.7718 272.449 58.949 272.532 59.1092C272.773 59.592 274.359 62.0406 281.602 62.0406C288.844 62.0406 290.431 59.592 290.672 59.1092C290.754 58.949 290.798 58.7718 290.799 58.5918V22.9926C290.796 19.2476 288.522 15.8784 285.051 14.4741V12.5083L298.053 20.5554C298.232 20.6667 298.439 20.7264 298.65 20.7279C298.796 20.73 298.941 20.7026 299.076 20.6474C299.415 20.5144 299.67 20.2286 299.765 19.8772C300.26 17.9688 300.271 13.8648 296.742 11.6921ZM274.704 6.89826H277.153C276.938 7.64962 276.938 8.44608 277.153 9.19744H274.704V6.89826ZM279.303 8.04785C279.303 6.77804 280.332 5.74866 281.602 5.74866C282.872 5.74866 283.901 6.77804 283.901 8.04785C283.901 9.31765 282.872 10.347 281.602 10.347C280.332 10.347 279.303 9.31765 279.303 8.04785ZM295.949 2.29989C295.124 3.7283 293.598 4.60562 291.948 4.59907H284.614C283.169 3.30237 281.055 3.07983 279.372 4.04727C279.625 3.02155 280.545 2.3007 281.602 2.29989H295.949ZM268.428 53.2577C268.343 53.552 268.144 53.8002 267.876 53.9475C267.594 54.1016 267.26 54.1308 266.956 54.028C266.371 53.8308 266.046 53.2064 266.22 52.614C266.416 51.8897 266.565 51.2115 266.68 50.5447H268.979C268.876 51.4069 268.68 52.3036 268.428 53.2577ZM269.382 41.386V41.4895C269.382 42.1793 269.382 47.4408 269.324 48.1535C269.33 48.1839 269.33 48.2151 269.324 48.2455H267.025C267.089 47.4809 267.108 42.1529 267.082 41.386H269.382ZM265.508 20.6934C265.564 24.6577 266.263 28.5866 267.577 32.3272C268.316 34.5288 268.862 36.7905 269.209 39.0868H266.91C266.578 37.0214 266.074 34.9872 265.404 33.0055C264.014 29.0465 263.272 24.8889 263.208 20.6934C263.208 9.79523 269.704 7.50754 272.405 7.02471V9.3239C270.106 9.82972 265.508 11.8875 265.508 20.6934ZM288.499 34.8334C286.252 35.4389 283.928 35.7101 281.602 35.6381C279.276 35.7092 276.952 35.4381 274.704 34.8334V30.327C276.967 30.8395 279.282 31.0788 281.602 31.0397C283.921 31.0788 286.237 30.8395 288.499 30.327V34.8334ZM281.602 59.7414C276.797 59.7414 275.13 58.5918 274.704 58.201V37.2245C276.967 37.7371 279.282 37.9764 281.602 37.9373C283.921 37.9764 286.237 37.7371 288.499 37.2245V58.178C288.028 58.5918 286.35 59.7414 281.602 59.7414ZM288.499 22.9926V27.9358C286.252 28.5414 283.928 28.8125 281.602 28.7405C279.276 28.8117 276.952 28.5405 274.704 27.9358V22.9926C274.704 19.1831 277.792 16.095 281.602 16.095C285.411 16.095 288.499 19.1831 288.499 22.9926ZM280.452 13.8763V12.4853C281.204 12.7 282 12.7 282.751 12.4853V13.8763C282.37 13.8262 281.986 13.7993 281.602 13.7958C281.217 13.7993 280.833 13.8262 280.452 13.8763ZM285.648 10.1746C286.008 9.52315 286.197 8.79181 286.2 8.04785C286.2 7.99037 286.2 7.94439 286.2 7.88691L295.546 13.6349C296.907 14.4904 297.722 15.9941 297.696 17.601L285.648 10.1746Z" fill="#A5FF14"/>
<path fill-rule="evenodd" clip-rule="evenodd" d="M92.2713 49.531C92.08 46.4723 89.9176 44.3338 86.4989 43.7875C86.4229 45.5189 86.5504 47.1712 87.1439 48.7794C88.806 49.3624 90.4546 49.387 92.2713 49.531M86.2377 51.6567C85.5333 52.6076 85.4003 53.6897 85.4413 54.7455C85.6326 54.9257 85.7148 55.0698 85.8239 55.0962C86.4701 55.2507 87.1175 55.4211 87.7742 55.5063C91.3706 55.9747 94.934 56.2261 98.4041 54.6952C100.086 53.9527 101.915 53.8969 103.709 54.396C104.992 54.7534 106.267 55.1501 107.527 55.5854C110.147 56.4916 112.822 56.8318 115.6 56.6976C120.274 56.4713 124.903 55.868 129.533 55.2507C129.842 55.2096 130.134 55.0471 130.393 54.9564C130.511 53.0637 130.477 52.946 129.36 51.4697C127.255 51.7351 125.081 52.027 122.902 52.2802C119.72 52.6511 116.533 52.973 113.321 52.9669C111.436 52.9632 109.597 52.7112 107.807 52.1196C106.667 51.7425 105.531 51.3532 104.388 50.9872C102.741 50.4605 101.121 50.4532 99.5058 51.1674C97.8964 51.8792 96.1853 52.1471 94.4318 52.1649C92.4282 52.1858 90.4307 52.1527 88.4467 51.7934C87.7417 51.6665 87.0201 51.4341 86.2377 51.6567M106.699 6.7128C105.087 6.87711 101.634 8.04138 100.351 8.86232C100.109 10.8868 100.464 12.9652 100.141 15.027C99.3127 15.39 98.5592 15.3219 97.7885 15.1049C97.6586 14.4458 97.5464 13.8787 97.4372 13.3245C95.0314 13.4771 89.6343 14.4838 88.1353 15.054C88.1236 15.233 88.0801 15.4298 88.1046 15.6187C88.3719 17.6726 88.7036 19.7191 88.9121 21.7791C89.2646 25.2474 89.3688 28.728 88.7141 32.1711C88.3529 34.0711 87.7809 35.9294 87.3389 37.8153C87.1139 38.7748 86.7871 39.727 86.8288 40.7821C87.8704 41.1923 88.9011 41.4952 89.8281 41.9918C90.7594 42.4914 91.6888 43.0825 92.4337 43.8206C93.178 44.5576 93.7936 45.4742 94.2785 46.4098C94.7586 47.3343 95.0032 48.3809 95.3588 49.3962C95.8554 49.3624 96.2625 49.3888 96.6414 49.2975C97.2883 49.1423 97.9375 48.9621 98.5488 48.7052C100.75 47.78 102.97 47.7997 105.212 48.4986C106.232 48.8168 107.238 49.1767 108.254 49.5096C110.11 50.1184 112.014 50.4636 113.969 50.3759C118.511 50.1736 123.028 49.7107 127.518 48.9952C127.892 48.9357 128.254 48.8033 128.71 48.6807C128.72 47.6488 128.786 46.7175 128.727 45.7942C128.589 43.6324 127.397 42.1732 125.297 41.6411C124.463 41.4296 123.576 41.4412 122.724 41.2861C121.528 41.0684 120.655 41.5945 119.88 42.4044C119.076 43.2468 118.544 44.2339 118.325 45.3822C118.19 46.0928 118.064 46.8052 117.921 47.59C117.413 47.6372 116.957 47.6979 116.5 47.7132C116.248 47.7218 115.994 47.6544 115.664 47.6114C115.201 44.9359 116.332 42.7735 117.676 40.6454C116.015 39.9796 114.445 39.4155 112.933 38.7258C111.399 38.0262 110.034 37.0201 108.977 35.7075C107.944 34.4243 107.063 33.0178 106.122 31.6745C99.8326 33.0295 99.8118 33.0319 98.0442 32.5574C97.9614 31.8523 97.8296 31.135 98.2073 30.3496C98.9142 30.2705 99.6481 30.227 100.367 30.1001C101.745 29.8573 103.119 29.5851 104.485 29.2834C104.85 29.2031 105.181 28.9726 105.582 28.7856C105.48 28.0149 105.699 27.2731 105.108 26.6177C102.794 27.0088 100.544 27.6888 98.0571 27.4815C97.9811 26.6024 97.8358 25.847 98.1791 24.9856C98.6585 24.939 99.1177 24.9219 99.5665 24.8464C101.145 24.581 102.722 24.3143 104.291 24.0028C104.658 23.9305 104.991 23.6816 105.336 23.5154C105.408 22.7288 105.653 22.0176 105.209 21.25C102.856 21.6657 100.547 22.3524 98.1668 22.0893C97.9105 20.7166 97.9056 20.7166 98.2907 19.6658C100.763 19.3856 103.294 19.2452 105.542 18.1845C106.33 13.1706 106.84 8.07388 106.699 6.7128M97.5445 10.2896C97.5721 9.65629 97.6475 9.05974 97.615 8.46871C97.5458 7.18918 98.1815 6.49208 99.3434 6.11932C101.314 5.48721 103.272 4.81648 105.237 4.1666C105.998 3.91522 106.762 3.67612 107.524 3.42965C108.907 2.98209 110.073 4.15801 109.851 5.53687C109.531 7.51473 109.232 9.4975 108.989 11.4858C108.411 16.1974 107.945 20.9195 108.033 25.676C108.051 26.6079 108.106 27.5508 108.268 28.4668C108.977 32.4777 111.299 35.217 115.01 36.8025C117.803 37.995 120.732 38.5909 123.757 38.7895C124.681 38.8502 125.624 38.9833 126.505 39.2543C129.326 40.1224 131.497 42.8213 131.315 45.8929C131.287 46.3589 131.333 46.8297 131.307 47.2963C131.241 48.52 131.389 49.6322 132.156 50.699C132.941 51.7909 133.25 53.1263 133.299 54.4892C133.367 56.3616 132.578 57.3849 130.745 57.7049C129.364 57.9465 127.973 58.1353 126.582 58.3033C122.537 58.7907 118.495 59.2934 114.412 59.3535C111.909 59.3903 109.491 59.0298 107.132 58.207C105.998 57.8116 104.859 57.4235 103.704 57.0955C102.193 56.6657 100.647 56.5817 99.184 57.2212C95.9468 58.6362 92.5625 58.6797 89.1438 58.3885C87.8171 58.2763 86.4916 58.0544 85.19 57.7699C83.3292 57.3616 82.6499 56.3996 82.7345 54.4726C82.7976 53.0533 83.0827 51.6695 83.8246 50.4501C84.2734 49.7119 84.4015 49.0173 84.2341 48.1755C83.5708 44.8433 83.7719 41.5252 84.5321 38.2335C84.8178 36.9975 85.1225 35.7633 85.4812 34.5475C86.2267 32.024 86.4995 29.4484 86.5051 26.8268C86.5124 23.0697 86.0802 19.3586 85.4426 15.6653C85.4088 15.4679 85.3414 15.2766 85.3089 15.0792C85.0312 13.414 85.4879 12.6684 87.1096 12.3466C89.2701 11.9174 91.4442 11.5581 93.6133 11.1725C94.5992 10.9965 95.5894 10.8439 96.5722 10.6501C96.8861 10.5882 97.1816 10.4276 97.5445 10.2896" fill="#A5FF14"/>
<path fill-rule="evenodd" clip-rule="evenodd" d="M28.1012 38.0218C28.109 36.2654 28.337 34.7702 27.9709 33.2844C27.7255 33.2182 27.5515 33.1311 27.3769 33.13C25.4245 33.1199 23.4722 33.1154 21.5198 33.1328C21.3003 33.1351 21.0819 33.2839 20.7831 33.3945C20.8702 34.9167 20.526 36.4221 21.0178 37.9578C21.7096 37.9814 22.3115 38.0162 22.9135 38.019C24.5559 38.0274 26.1983 38.0218 28.1012 38.0218M20.8904 51.2154C21.7079 51.6556 22.5165 51.4512 23.2942 51.4816C24.0881 51.5124 24.8843 51.5113 25.6789 51.4816C26.4515 51.4524 27.2589 51.6523 28.0467 51.2193C28.1826 49.6898 28.296 48.1906 27.9737 46.7167C26.278 46.4258 22.3744 46.4477 20.928 46.7588C20.6607 48.2333 20.7135 49.7297 20.8904 51.2154M2.66854 57.5334C2.91672 57.5671 3.20814 57.6407 3.50012 57.6412C9.74121 57.6474 15.9823 57.6469 22.2239 57.6379C22.5098 57.6373 22.7961 57.5419 23.1443 57.4795C23.2341 56.2555 23.3627 55.1302 23.0224 53.9275C21.9662 53.8994 20.9943 53.9084 20.0285 53.8388C19.0094 53.7658 18.4939 53.2278 18.3934 52.207C18.335 51.6124 18.3243 51.0127 18.2929 50.4355C18.011 50.3367 17.8426 50.2255 17.6741 50.2249C12.9019 50.2109 8.12914 50.2064 3.35638 50.2092C3.12391 50.2092 2.89089 50.2906 2.68931 50.3282C2.29851 51.7399 2.28222 55.8742 2.66854 57.5334M30.5914 50.3451C30.5544 51.0947 30.5527 51.7034 30.4893 52.3059C30.3932 53.2116 29.8671 53.7343 28.9592 53.8354C28.5358 53.8825 28.1057 53.8534 27.6784 53.8708C27.0826 53.8949 26.4863 53.9297 25.8176 53.9634C25.5812 55.1953 25.6261 56.315 25.7665 57.4874C26.0949 57.5508 26.3252 57.6328 26.5554 57.6328C32.9649 57.6339 39.3745 57.6278 45.784 57.6143C45.9553 57.6137 46.1254 57.5093 46.2826 57.4576C46.633 55.9292 46.6206 51.7679 46.2607 50.3597C46.1063 50.3142 45.9373 50.2216 45.7677 50.221C41.0062 50.2092 36.2446 50.2047 31.4825 50.207C31.2484 50.207 31.0143 50.2771 30.5914 50.3451M2.44225 36.9437C2.44225 40.4688 2.43888 43.8306 2.45292 47.1928C2.45348 47.3472 2.61014 47.5011 2.71233 47.6898C2.95209 47.7268 3.18961 47.7948 3.42712 47.7953C8.07636 47.8015 12.7262 47.8037 17.3759 47.7919C17.664 47.7908 17.9515 47.6712 18.2586 47.6022C18.3007 47.3029 18.349 47.0654 18.3648 46.8256C18.3844 46.5201 18.3597 46.2119 18.3866 45.9075C18.4855 44.7829 18.9886 44.2803 20.1284 44.1882C20.5546 44.154 20.9847 44.186 21.4126 44.1669C21.9494 44.1433 22.485 44.0978 23.0668 44.0591C23.2886 42.8182 23.3543 41.6974 23.0224 40.5486C22.5973 40.5138 22.2363 40.4711 21.8736 40.4587C21.3845 40.4419 20.8932 40.4728 20.4058 40.4408C18.9785 40.3453 18.4664 39.8164 18.376 38.3918C18.3462 37.9207 18.3075 37.4502 18.2743 36.9999C17.9869 36.9089 17.8178 36.809 17.6477 36.8084C12.8755 36.7961 8.10387 36.7927 3.33167 36.7955C3.09977 36.7955 2.86787 36.8702 2.44225 36.9437M30.5903 47.5791C31.9216 48.0076 33.2097 47.7639 34.4759 47.8026C35.8173 47.8442 37.1616 47.8122 38.5047 47.8122C39.7872 47.8122 41.0696 47.8346 42.351 47.8054C43.6727 47.7757 45.0102 47.9419 46.2983 47.6886C46.3932 47.3916 46.4937 47.2226 46.4943 47.0536C46.5078 43.9389 46.5128 40.8237 46.5072 37.7085C46.5066 37.4744 46.4146 37.2402 46.3242 36.8157C44.574 36.7422 42.8176 36.786 41.064 36.7787C39.3548 36.7708 37.6445 36.7478 35.9358 36.7848C34.1879 36.8224 32.4253 36.6102 30.6409 36.9454C30.5931 37.266 30.5443 37.4968 30.528 37.7304C30.5078 38.0347 30.5308 38.3424 30.505 38.6462C30.4095 39.7518 29.9047 40.301 28.7901 40.4161C28.1242 40.4846 27.447 40.429 26.7777 40.4666C26.4369 40.4857 26.1006 40.5868 25.7294 40.6575C25.6744 41.844 25.543 42.9175 25.8209 44.0198C26.1399 44.0759 26.3729 44.145 26.6076 44.1523C27.3398 44.1764 28.0748 44.1422 28.8042 44.195C29.93 44.2764 30.4146 44.7918 30.5067 45.9384C30.5499 46.4797 30.5628 47.0227 30.5903 47.5791M30.6313 34.2648C32.5095 34.4119 34.2154 34.3271 35.9167 34.3423C37.6888 34.3575 39.4615 34.3698 41.2341 34.3384C42.9237 34.3086 44.6251 34.4815 46.2933 34.2148C46.3826 33.9549 46.4887 33.7853 46.4909 33.614C46.5106 31.9632 46.5038 30.3124 46.5246 28.6616C46.5319 28.0479 46.2259 27.6436 45.7829 27.2685C43.0169 24.927 41.1393 21.9483 39.6473 18.6899C38.1066 15.3237 37.211 11.7857 36.7842 8.11793C36.7079 7.46097 36.7696 6.7619 36.2649 6.15267C35.3395 6.00724 34.3833 5.99882 33.5528 6.14425C33.3495 6.34302 33.2367 6.41321 33.1794 6.51484C31.222 9.97201 29.236 13.4134 27.3302 16.8987C26.2303 18.9111 25.6867 21.1049 25.6733 23.411C25.6609 25.4285 25.6615 27.4471 25.6721 29.4645C25.6744 29.8138 25.7519 30.1619 25.799 30.5494C26.1292 30.6016 26.3605 30.6617 26.5936 30.6706C27.0826 30.6897 27.5717 30.6779 28.0608 30.6852C30.0266 30.715 30.4219 31.0912 30.5201 33.0042C30.5381 33.3636 30.5825 33.7213 30.6313 34.2648M19.394 7.82932C19.6259 8.34141 19.7708 8.73221 19.9718 9.09213C20.9561 10.8541 21.9629 12.6032 22.9427 14.368C23.1392 14.7212 23.4997 15.0401 23.3065 15.6016C22.7647 15.9621 22.2116 16.418 21.4064 16.5157C19.4136 13.0114 17.454 9.56436 15.4668 6.06901C14.4224 6.11674 13.464 5.91572 12.414 6.25767C12.3067 6.92305 12.2163 7.58282 12.0928 8.2364C11.7295 10.1573 11.4948 12.1164 10.9546 13.9867C9.47225 19.1172 7.16785 23.7995 3.01442 27.3567C2.54894 27.7553 2.39172 28.2287 2.39565 28.8087C2.40688 30.3388 2.3934 31.8689 2.41755 33.3984C2.42204 33.6775 2.55511 33.9549 2.63765 34.2676C3.03239 34.2974 3.32999 34.3395 3.62814 34.3395C8.15384 34.344 12.6795 34.3468 17.2058 34.3344C17.5534 34.3333 17.9009 34.2199 18.2715 34.1548C18.3103 33.7763 18.3496 33.477 18.3687 33.1772C18.3878 32.8717 18.3625 32.5623 18.4001 32.2602C18.5102 31.3663 19.0481 30.8155 19.9347 30.7139C20.3581 30.665 20.7899 30.6987 21.2177 30.6824C21.8146 30.66 22.4109 30.6263 23.1061 30.592C23.1527 30.0805 23.2206 29.6695 23.2234 29.2585C23.2369 27.6672 23.2532 26.0759 23.2245 24.4851C23.1622 20.9724 24.005 17.7067 25.7732 14.6684C26.9114 12.7121 28.0035 10.73 29.1035 8.75186C29.2354 8.51435 29.2831 8.23023 29.4056 7.86188C27.6374 8.09771 26.0186 8.48459 24.4009 8.4801C22.7855 8.47504 21.1711 8.0775 19.394 7.82932M10.3246 3.6568C12.2708 3.6568 13.9817 3.62086 15.6886 3.67813C16.2159 3.6961 16.7454 3.93867 17.2558 4.1279C18.4591 4.57429 19.6349 5.09873 20.8511 5.50414C23.2476 6.30259 25.671 6.29192 28.0669 5.49908C29.2264 5.11558 30.35 4.62427 31.4943 4.19528C32.0059 4.00324 32.523 3.72249 33.0491 3.69386C34.3911 3.62142 35.7421 3.61805 37.0852 3.68263C38.238 3.73765 38.6737 4.19584 38.8629 5.40138C39.0426 6.55022 39.1639 7.70803 39.3172 8.86079C39.8714 13.0395 41.1802 16.9621 43.3353 20.5911C44.437 22.4463 45.729 24.1583 47.4427 25.4891C48.5073 26.3151 48.911 27.3246 48.9059 28.6633C48.8723 38.0342 48.8885 47.4056 48.8869 56.7765C48.8869 57.0825 48.893 57.3919 48.8548 57.694C48.7021 58.9024 47.8149 59.8451 46.6049 60.0254C46.0642 60.1062 45.5061 60.0826 44.9558 60.0826C31.3051 60.0849 17.655 60.0849 4.00491 60.0838C3.51528 60.0838 3.02228 60.104 2.53714 60.0551C1.13451 59.9153 0.170977 58.9574 0.029479 57.5716C-0.0143181 57.1466 0.00364993 56.7153 0.00364993 56.2863C0.00252692 47.2215 0.00252692 38.1566 0.00308843 29.0917C0.00308843 28.7239 0.0103879 28.3567 0.012634 27.9895C0.0165645 27.1388 0.363572 26.4352 0.999192 25.899C6.38231 21.3649 8.62775 15.2771 9.60645 8.55646C9.83498 6.98931 10.0658 5.42216 10.3246 3.6568" fill="#A5FF14"/>
<path fill-rule="evenodd" clip-rule="evenodd" d="M221.536 34.2743L172.979 34.1513L173.081 37.0593L221.536 36.8999V34.2743ZM198.574 10.5765C198.557 12.2123 198.578 11.9743 198.558 13.6101C198.553 14.0694 198.454 14.528 198.394 15.0248C197.901 15.0704 197.5 15.1322 197.098 15.136C196.767 15.1397 196.436 15.0735 195.953 15.0229C195.785 13.717 195.893 12.4304 195.856 11.1526C195.819 9.8098 195.961 10.9545 195.738 9.57923C194.833 9.30368 194.015 9.38178 193.216 9.40678C192.36 9.43364 191.453 9.16934 190.567 9.74732C190.548 10.4165 190.513 10.4646 190.512 11.1382C190.506 14.6142 190.514 16.2163 190.504 19.6923C190.503 20.2185 190.435 20.744 190.396 21.3044C189.486 21.5325 188.715 21.6344 187.909 21.1888C187.619 19.1437 187.993 17.0967 187.662 14.9404C187.185 15.1266 186.792 15.216 186.47 15.4172C181.01 18.8226 177.778 23.7338 176.667 30.0541C176.601 30.4266 176.702 30.8271 176.724 31.1895C178.636 31.5069 200.322 31.6206 215.828 31.4057C216.361 31.3982 216.892 31.3276 217.402 31.2882C218.115 25.7796 211.629 16.1351 206.524 15.0841C206.2 17.1474 206.694 19.2643 206.234 21.3413C205.337 21.4938 204.549 21.6968 203.722 21.0576V19.0663C203.721 15.5902 203.728 13.9881 203.713 10.5121C203.711 9.99163 203.604 10.0966 203.531 9.44739C202.338 9.42802 201.261 9.39865 200.185 9.40115C199.725 9.40178 199.266 9.46864 198.713 9.513C198.658 10.1485 198.58 10.0497 198.574 10.5765ZM224.047 31.59L224.566 37.0199C224.566 37.0199 226.037 37.1393 226.812 37.2024C227.277 37.989 227.15 38.7526 226.942 39.5318C226.682 39.6068 226.493 39.7099 226.303 39.7099C206.97 39.7217 187.638 39.7261 168.306 39.7236C168.045 39.7236 167.785 39.6393 167.444 39.5799C167.194 38.8363 167.26 38.1246 167.374 37.2811C168.212 37.1799 169.825 36.9855 169.825 36.9855L170.08 31.7362C170.08 31.7362 172.498 31.7012 173.69 31.1782C173.816 30.5971 173.974 29.9485 174.096 29.2925C175.488 21.7912 179.542 16.207 186.179 12.481C186.652 12.2148 187.13 11.958 187.734 11.6275C187.755 10.5252 187.853 11.8724 187.786 10.7302C187.634 8.14396 188.917 6.58185 191.865 6.67058C195.402 6.77743 198.944 6.69557 202.484 6.69682C202.825 6.69682 203.168 6.68183 203.504 6.71869C205.288 6.91677 206.318 7.999 206.409 9.81292C206.454 10.6965 206.411 9.7092 206.426 10.5946C206.435 11.1332 206.479 11.0464 206.505 11.5444C214.567 15.6983 219.146 21.8668 220.577 31.1939C221.649 31.6944 224.047 31.59 224.047 31.59ZM204.888 25.4533C205.118 26.4643 205.176 27.1867 204.822 28.0271C203.554 28.2039 202.271 28.0902 200.997 28.1102C199.705 28.1302 198.411 28.1146 197.119 28.1146C195.826 28.1146 194.532 28.1458 193.241 28.1058C191.966 28.0677 190.672 28.2939 189.423 27.9327C189.127 27.1411 189.175 26.4125 189.399 25.5465C191.043 25.2509 192.737 25.4434 194.415 25.4102C196.183 25.3746 197.953 25.3934 199.722 25.4046C201.409 25.4146 203.099 25.3559 204.888 25.4533M216.064 53.5823C216.064 54.3952 215.484 55.085 214.681 55.2181L203.048 57.9087C202.421 58.0206 201.826 57.6282 201.665 57.0127L200.52 52.6382C200.093 51.0054 198.617 49.8651 196.928 49.8651C195.239 49.8651 193.764 51.0054 193.337 52.6382L192.192 57.0127C192.032 57.6282 191.433 58.0206 190.809 57.9087L179.176 55.2181C178.375 55.0838 177.793 54.3952 177.793 53.5823V45.9998H216.064V53.5823ZM218.557 43.9491C218.557 43.9491 218.278 43.6566 218.097 43.511H176.875L175.943 43.5104C175.774 43.6723 175.597 43.8266 175.414 43.9753C175.403 44.2052 175.378 44.4333 175.354 44.6626V45.5056C175.353 45.773 175.326 46.0329 175.302 46.2941V53.5823C175.302 55.34 176.391 56.8584 177.979 57.4588L180.636 57.9906L190.396 60.365C192.315 60.6855 194.113 59.5146 194.605 57.6432L195.749 53.268C195.888 52.7319 196.374 52.357 196.929 52.357C197.485 52.357 197.97 52.7306 198.11 53.268L199.256 57.6419C199.69 59.3077 201.167 60.4175 202.832 60.4175C203.04 60.4175 203.251 60.4 203.462 60.365L213.666 57.9162L216.35 57.242C217.678 56.5409 218.557 55.1613 218.557 53.5835V46.4541V43.9491Z" fill="#A5FF14"/>
</svg>
