<svg width="64" height="66" viewBox="0 0 64 66" fill="none" xmlns="http://www.w3.org/2000/svg">
<mask id="path-1-outside-1_0_1865" maskUnits="userSpaceOnUse" x="0" y="0" width="64" height="66" fill="black">
<rect fill="white" width="64" height="66"/>
<path fill-rule="evenodd" clip-rule="evenodd" d="M30.0134 13.5887C28.7793 13.5887 27.6995 12.8174 27.3139 11.6605L26.4654 8.96093C25.6941 6.64705 27.391 4.25603 29.8591 4.25603H30.399V4.17891C30.2448 3.71613 30.3219 3.25335 30.7076 2.86771L31.1703 2.40493C31.7102 1.86502 32.4815 1.86502 33.0214 2.40493L33.4842 2.86771C33.7927 3.17622 33.947 3.71613 33.7927 4.17891V4.25603H34.3326C36.8008 4.25603 38.4976 6.64705 37.7263 8.96093L36.8779 11.6605C36.4923 12.8174 35.4125 13.5887 34.1784 13.5887H30.0134ZM60.788 12.586C60.7109 12.3546 60.6338 12.2004 60.4795 12.0461C60.3252 11.8918 60.0939 11.8147 59.8625 11.8147C59.6311 11.8147 59.3997 11.8147 59.2454 11.969C59.0912 12.0461 58.9369 12.2004 58.7827 12.4318C58.0885 13.6658 56.7773 15.9026 55.5432 17.6765C51.9181 22.9213 48.2159 26.6236 42.9711 26.7778C42.3541 26.7778 41.7371 26.6236 41.1972 26.3922C39.5003 25.6209 38.4976 23.7698 38.8061 21.9187C38.8061 21.0702 39.1147 20.2989 39.5003 19.6048C39.9631 18.9106 40.5801 18.3707 41.3514 17.9851C42.4312 17.4452 43.8967 17.368 45.0536 17.5994C45.6707 17.6765 46.2877 17.9079 46.8276 18.2165C47.3675 18.525 47.676 18.4478 47.7532 17.7537C47.8303 16.134 47.5218 13.9743 46.0563 12.9717C44.2052 11.6605 41.2743 12.586 39.4232 13.5887C37.4949 14.5914 35.8752 16.134 34.4869 17.8308C33.5613 18.9877 32.6358 20.2218 32.0188 21.6101C31.3246 20.2989 30.4762 18.9877 29.5506 17.8308C28.1623 16.134 26.5426 14.5914 24.6143 13.5887C22.8404 12.586 19.9094 11.6605 17.9812 12.9717C16.5158 13.9743 16.2072 16.134 16.2844 17.7537C16.3615 18.3707 16.67 18.525 17.2099 18.2165C17.7498 17.9079 18.3669 17.6765 18.9839 17.5994C20.218 17.368 21.6063 17.4452 22.6861 17.9851C23.4574 18.3707 24.0744 18.9106 24.5372 19.6048C25 20.2989 25.2314 21.1474 25.2314 21.9187C25.4628 23.7698 24.4601 25.6209 22.8404 26.3922C22.3005 26.6236 21.6834 26.7778 21.0664 26.7778C15.8216 26.6236 12.1194 22.9213 8.49429 17.6765C7.26022 15.9026 5.94902 13.6658 5.25486 12.4318C5.17773 12.2004 5.02347 12.0461 4.79208 11.969C4.63783 11.8918 4.40644 11.8147 4.17505 11.8147C3.94366 11.8147 3.7894 11.8918 3.55801 12.0461C3.40375 12.2004 3.2495 12.3546 3.2495 12.586C1.86117 17.8308 1.62978 23.307 2.55533 28.7061C3.2495 32.871 5.71764 39.2728 9.88262 41.4324C14.0476 43.592 17.5184 41.9723 19.9094 40.7382C21.2978 39.9669 22.2233 39.5813 22.9946 39.7356C23.5345 39.8127 23.7659 40.4297 23.3803 40.8925L20.2951 44.749C19.4467 45.6745 19.2153 46.9086 19.4467 48.0655L15.2046 51.8449L14.279 50.9964C14.5875 50.3794 14.7418 49.6081 14.7418 48.914C14.7418 48.0655 14.0476 47.3714 13.1992 47.3714C12.3508 47.3714 11.6566 48.0655 11.6566 48.914C11.6566 49.9166 10.8082 50.6879 9.88262 50.6879C9.0342 50.6879 8.34004 51.3821 8.34004 52.2305C8.34004 53.0789 9.0342 53.7731 9.88262 53.7731C10.731 53.7731 11.5023 53.5417 12.1965 53.2332L14.279 55.0843L17.9812 58.4009C18.5982 58.9408 19.6009 58.9408 20.1408 58.2466C20.6807 57.6296 20.6807 56.6269 19.9866 56.087L17.5956 53.9274L21.2978 50.6108C21.8377 50.9193 22.5318 51.0736 23.226 50.9193C25.2314 50.6879 27.2367 49.6852 29.0107 48.6826C29.8342 51.3429 27.1203 53.5871 25.013 55.3297L25.0129 55.3299C24.5542 55.7091 24.1243 56.0646 23.7659 56.3955C23.7176 56.4438 23.6671 56.4937 23.6152 56.545C22.839 57.3118 21.7414 58.3963 22.609 59.4807C23.0814 60.0881 23.9672 60.3412 24.6979 60.5499L24.6981 60.55C24.8024 60.5798 24.9036 60.6087 25 60.6376C25.3856 60.7148 25.7713 60.7919 26.1569 60.9461C27.7766 61.3318 29.3192 62.026 30.7076 63.0286C30.772 63.0769 30.833 63.1219 30.8914 63.1648C31.1127 63.3278 31.2958 63.4626 31.4789 63.6457C31.6331 63.7999 31.8645 63.8771 32.0959 63.8771C32.3273 63.8771 32.5587 63.7999 32.7129 63.6457C32.8382 63.5622 32.9635 63.456 33.101 63.3395C33.2175 63.2409 33.3427 63.1348 33.4842 63.0286C34.7954 62.026 36.338 61.2547 38.0349 60.9461C38.4205 60.869 38.8061 60.7919 39.1918 60.6376C39.2479 60.6223 39.3046 60.607 39.3618 60.5916C40.1707 60.3736 41.0786 60.129 41.5828 59.4807C42.5084 58.3237 41.1972 57.0897 40.4259 56.3955C40.0498 56.0345 39.5828 55.6441 39.0821 55.2256L39.082 55.2256C37.0153 53.498 34.3739 51.2902 35.1811 48.6826C36.955 49.6852 38.9604 50.6108 40.9658 50.9193C41.6599 50.9964 42.277 50.9193 42.8169 50.6108L46.442 53.8502C46.442 53.9274 46.4227 54.0238 46.4034 54.1202L46.4034 54.1203C46.3841 54.2166 46.3648 54.313 46.3648 54.3901C46.3648 57.0897 48.5244 59.2493 51.224 59.2493C53.9235 59.2493 56.0831 57.0897 56.0831 54.3901C56.0831 51.6906 53.9235 49.531 51.224 49.531C49.8356 49.531 48.6016 50.0709 47.7532 50.9964L44.668 48.2198C44.8994 47.0628 44.668 45.8288 43.8196 44.8261L40.7344 40.9696C40.4259 40.584 40.6573 39.8898 41.12 39.8127C41.8913 39.6584 42.8169 40.1212 44.2052 40.8154L44.2052 40.8154C46.5962 42.0494 50.067 43.7463 54.232 41.5095C58.397 39.3499 60.788 32.9482 61.5593 28.7832C62.3306 23.3841 62.0992 17.9079 60.788 12.586ZM49.5271 53.696C49.7585 53.0018 50.4527 52.4619 51.224 52.4619C52.2267 52.4619 52.998 53.3103 52.998 54.2359C52.998 55.2386 52.1495 56.0099 51.224 56.0099C50.2213 56.0099 49.45 55.1614 49.45 54.2359C49.45 54.0816 49.45 53.8502 49.5271 53.696Z"/>
</mask>
<path d="M27.3139 11.6605L25.4059 12.2601L25.411 12.2766L25.4165 12.2929L27.3139 11.6605ZM26.4654 8.96093L28.3734 8.36127L28.3683 8.34483L28.3628 8.32847L26.4654 8.96093ZM30.399 4.25603V6.25603H32.399V4.25603H30.399ZM30.399 4.17891H32.399V3.85435L32.2964 3.54645L30.399 4.17891ZM30.7076 2.86771L29.2933 1.45349L29.2933 1.45349L30.7076 2.86771ZM31.1703 2.40493L32.5845 3.81914L31.1703 2.40493ZM33.0214 2.40493L34.4357 0.990716L34.4357 0.990713L33.0214 2.40493ZM33.4842 2.86771L34.8984 1.45349L34.8984 1.45349L33.4842 2.86771ZM33.7927 4.17891L31.8954 3.54645L31.7927 3.85435V4.17891H33.7927ZM33.7927 4.25603H31.7927V6.25603H33.7927V4.25603ZM37.7263 8.96093L35.829 8.32847L35.8235 8.34483L35.8183 8.36127L37.7263 8.96093ZM36.8779 11.6605L38.7753 12.2929L38.7807 12.2766L38.7859 12.2601L36.8779 11.6605ZM60.788 12.586L62.73 12.1076L62.7108 12.0297L62.6854 11.9536L60.788 12.586ZM59.2454 11.969L60.1399 13.7578L60.4302 13.6127L60.6596 13.3832L59.2454 11.969ZM58.7827 12.4318L57.1186 11.3223L57.0766 11.3853L57.0395 11.4512L58.7827 12.4318ZM55.5432 17.6765L53.9014 16.5344L53.898 16.5394L55.5432 17.6765ZM42.9711 26.7778V28.7778H43.0005L43.0299 28.777L42.9711 26.7778ZM41.1972 26.3922L40.3696 28.2129L40.3893 28.2219L40.4093 28.2305L41.1972 26.3922ZM38.8061 21.9187L40.7789 22.2475L40.8061 22.0842V21.9187H38.8061ZM39.5003 19.6048L37.8362 18.4954L37.7913 18.5627L37.752 18.6335L39.5003 19.6048ZM41.3514 17.9851L42.2458 19.7739L42.2458 19.7739L41.3514 17.9851ZM45.0536 17.5994L44.6614 19.5606L44.733 19.5749L44.8056 19.584L45.0536 17.5994ZM46.8276 18.2165L45.8353 19.9529L45.8353 19.9529L46.8276 18.2165ZM47.7532 17.7537L49.7409 17.9745L49.7479 17.9118L49.7509 17.8488L47.7532 17.7537ZM46.0563 12.9717L44.9003 14.6037L44.9135 14.6131L44.9269 14.6223L46.0563 12.9717ZM39.4232 13.5887L40.3459 15.3631L40.3609 15.3553L40.3757 15.3473L39.4232 13.5887ZM34.4869 17.8308L32.939 16.5643L32.932 16.5728L32.9252 16.5814L34.4869 17.8308ZM32.0188 21.6101L30.2512 22.5459L32.1758 26.1813L33.8464 22.4224L32.0188 21.6101ZM29.5506 17.8308L31.1124 16.5814L31.1055 16.5728L31.0985 16.5643L29.5506 17.8308ZM24.6143 13.5887L23.6302 15.3298L23.6606 15.347L23.6916 15.3631L24.6143 13.5887ZM17.9812 12.9717L16.8566 11.3178L16.8518 11.321L17.9812 12.9717ZM16.2844 17.7537L14.2866 17.8488L14.2903 17.9255L14.2998 18.0017L16.2844 17.7537ZM17.2099 18.2165L18.2022 19.9529L18.2022 19.9529L17.2099 18.2165ZM18.9839 17.5994L19.232 19.584L19.2925 19.5764L19.3525 19.5652L18.9839 17.5994ZM22.6861 17.9851L21.7917 19.7739L21.7917 19.7739L22.6861 17.9851ZM25.2314 21.9187H23.2314V22.0432L23.2468 22.1667L25.2314 21.9187ZM22.8404 26.3922L23.6282 28.2305L23.6645 28.2149L23.7002 28.1979L22.8404 26.3922ZM21.0664 26.7778L21.0076 28.777L21.037 28.7778H21.0664V26.7778ZM8.49429 17.6765L10.1396 16.5394L10.1361 16.5344L8.49429 17.6765ZM5.25486 12.4318L3.35749 13.0642L3.41796 13.2456L3.51171 13.4123L5.25486 12.4318ZM4.79208 11.969L3.89766 13.7578L4.02479 13.8214L4.15963 13.8663L4.79208 11.969ZM3.55801 12.0461L2.44861 10.382L2.28384 10.4919L2.1438 10.6319L3.55801 12.0461ZM3.2495 12.586L5.18291 13.0978L5.2495 12.8462V12.586H3.2495ZM2.55533 28.7061L4.52814 28.3772L4.52658 28.3681L2.55533 28.7061ZM9.88262 41.4324L8.96199 43.2079L8.96199 43.2079L9.88262 41.4324ZM19.9094 40.7382L20.8267 42.5155L20.854 42.5014L20.8807 42.4866L19.9094 40.7382ZM22.9946 39.7356L22.6024 41.6967L22.6568 41.7076L22.7118 41.7155L22.9946 39.7356ZM23.3803 40.8925L21.8438 39.6121L21.831 39.6275L21.8185 39.6431L23.3803 40.8925ZM20.2951 44.749L21.7694 46.1004L21.8148 46.0509L21.8568 45.9984L20.2951 44.749ZM19.4467 48.0655L20.7771 49.5588L21.6325 48.7967L21.4078 47.6733L19.4467 48.0655ZM15.2046 51.8449L13.8531 53.3192L15.1854 54.5405L16.535 53.3382L15.2046 51.8449ZM14.279 50.9964L12.4901 50.102L11.8155 51.4514L12.9276 52.4708L14.279 50.9964ZM12.1965 53.2332L13.5252 51.7384L12.562 50.8821L11.3842 51.4056L12.1965 53.2332ZM14.279 55.0843L15.6135 53.5946L15.6077 53.5895L14.279 55.0843ZM17.9812 58.4009L16.6467 59.8905L16.6554 59.8983L16.6642 59.906L17.9812 58.4009ZM20.1408 58.2466L18.6357 56.9296L18.5976 56.9731L18.5621 57.0187L20.1408 58.2466ZM19.9866 56.087L18.646 57.5712L18.7006 57.6205L18.7587 57.6657L19.9866 56.087ZM17.5956 53.9274L16.2611 52.4377L14.605 53.9213L16.255 55.4116L17.5956 53.9274ZM21.2978 50.6108L22.2901 48.8743L21.0377 48.1587L19.9633 49.1211L21.2978 50.6108ZM23.226 50.9193L22.9968 48.9325L22.8936 48.9444L22.7921 48.9669L23.226 50.9193ZM29.0107 48.6826L30.9213 48.0912L30.1874 45.7201L28.0266 46.9414L29.0107 48.6826ZM25.013 55.3297L26.2624 56.8915L26.2751 56.8813L26.2876 56.871L25.013 55.3297ZM25.0129 55.3299L23.7635 53.7681L23.7508 53.7783L23.7383 53.7886L25.0129 55.3299ZM23.7659 56.3955L22.4094 54.9259L22.38 54.953L22.3517 54.9813L23.7659 56.3955ZM23.6152 56.545L22.2096 55.1222L22.2096 55.1223L23.6152 56.545ZM22.609 59.4807L24.1877 58.2528L24.1793 58.242L24.1707 58.2313L22.609 59.4807ZM24.6979 60.5499L24.1485 62.473L24.1601 62.4763L24.1717 62.4795L24.6979 60.5499ZM24.6981 60.55L25.2475 58.6269L25.2359 58.6236L25.2243 58.6205L24.6981 60.55ZM25 60.6376L24.4253 62.5533L24.5155 62.5803L24.6078 62.5988L25 60.6376ZM26.1569 60.9461L25.4141 62.8031L25.5507 62.8577L25.6937 62.8918L26.1569 60.9461ZM30.7076 63.0286L31.9076 61.4286L31.8931 61.4178L31.8785 61.4073L30.7076 63.0286ZM30.8914 63.1648L29.7056 64.7754L29.7056 64.7754L30.8914 63.1648ZM32.7129 63.6457L31.6035 61.9816L31.4387 62.0914L31.2987 62.2315L32.7129 63.6457ZM33.101 63.3395L31.8082 61.8135L31.8082 61.8135L33.101 63.3395ZM33.4842 63.0286L34.6842 64.6286L34.6917 64.623L34.6991 64.6173L33.4842 63.0286ZM38.0349 60.9461L38.3926 62.9139L38.4099 62.9107L38.4271 62.9073L38.0349 60.9461ZM39.1918 60.6376L38.6655 58.7081L38.5552 58.7382L38.449 58.7807L39.1918 60.6376ZM39.3618 60.5916L38.8414 58.6605L38.8414 58.6605L39.3618 60.5916ZM41.5828 59.4807L40.0211 58.2313L40.0125 58.242L40.0041 58.2528L41.5828 59.4807ZM40.4259 56.3955L39.0408 57.8383L39.064 57.8606L39.0879 57.8821L40.4259 56.3955ZM39.0821 55.2256L40.3647 53.6911L40.2816 53.6216L40.1915 53.5615L39.0821 55.2256ZM39.082 55.2256L37.7994 56.7601L37.8825 56.8296L37.9726 56.8897L39.082 55.2256ZM35.1811 48.6826L36.1652 46.9414L34.0044 45.7201L33.2705 48.0912L35.1811 48.6826ZM40.9658 50.9193L40.6617 52.8961L40.7032 52.9024L40.7449 52.9071L40.9658 50.9193ZM42.8169 50.6108L44.1495 49.1195L43.0754 48.1596L41.8246 48.8743L42.8169 50.6108ZM46.442 53.8502H48.442V52.9553L47.7746 52.3589L46.442 53.8502ZM46.4034 54.1202L44.4422 53.7279L44.4359 53.7596L44.4306 53.7914L46.4034 54.1202ZM46.4034 54.1203L48.3645 54.5124L48.3709 54.4808L48.3762 54.4491L46.4034 54.1203ZM47.7532 50.9964L46.4152 52.483L47.8883 53.8088L49.2275 52.3479L47.7532 50.9964ZM44.668 48.2198L42.7068 47.8276L42.4834 48.9444L43.33 49.7064L44.668 48.2198ZM43.8196 44.8261L42.2578 46.0755L42.275 46.097L42.2928 46.118L43.8196 44.8261ZM40.7344 40.9696L39.1726 42.219L39.1726 42.219L40.7344 40.9696ZM41.12 39.8127L41.4488 41.7855L41.4806 41.7802L41.5123 41.7738L41.12 39.8127ZM44.2052 40.8154L43.3107 42.6042L43.4379 42.6678L43.5727 42.7127L44.2052 40.8154ZM44.2052 40.8154L45.1225 39.0381L44.9847 38.967L44.8377 38.918L44.2052 40.8154ZM54.232 41.5095L53.3114 39.734L53.2985 39.7407L53.2858 39.7475L54.232 41.5095ZM61.5593 28.7832L63.5259 29.1474L63.5334 29.1068L63.5392 29.066L61.5593 28.7832ZM49.5271 53.696L51.316 54.5904L51.3795 54.4633L51.4245 54.3284L49.5271 53.696ZM25.4165 12.2929C26.0788 14.2798 27.9326 15.5887 30.0134 15.5887V11.5887C29.6261 11.5887 29.3202 11.355 29.2112 11.028L25.4165 12.2929ZM24.5575 9.56058L25.4059 12.2601L29.2219 11.0608L28.3734 8.36127L24.5575 9.56058ZM29.8591 2.25603C26.0158 2.25603 23.3683 5.99405 24.5681 9.59338L28.3628 8.32847C28.02 7.30004 28.7662 6.25603 29.8591 6.25603V2.25603ZM30.399 2.25603H29.8591V6.25603H30.399V2.25603ZM28.399 4.17891V4.25603H32.399V4.17891H28.399ZM29.2933 1.45349C28.3332 2.41361 28.1257 3.6835 28.5017 4.81136L32.2964 3.54645C32.3151 3.60243 32.3445 3.73849 32.3052 3.91924C32.2643 4.1073 32.1736 4.2301 32.1218 4.28192L29.2933 1.45349ZM29.7561 0.990716L29.2933 1.45349L32.1218 4.28192L32.5845 3.81914L29.7561 0.990716ZM34.4357 0.990713C33.1147 -0.330236 31.0771 -0.33024 29.7561 0.990716L32.5845 3.81914C32.5086 3.89511 32.3384 4 32.0959 4C31.8534 4 31.6832 3.89511 31.6072 3.81915L34.4357 0.990713ZM34.8984 1.45349L34.4357 0.990716L31.6072 3.81914L32.07 4.28192L34.8984 1.45349ZM35.6901 4.81136C36.0968 3.59121 35.7131 2.26821 34.8984 1.45349L32.07 4.28192C31.9409 4.15284 31.892 4.03178 31.8717 3.95053C31.8501 3.86402 31.8366 3.72283 31.8954 3.54645L35.6901 4.81136ZM35.7927 4.25603V4.17891H31.7927V4.25603H35.7927ZM34.3326 2.25603H33.7927V6.25603H34.3326V2.25603ZM39.6237 9.59338C40.8235 5.99405 38.176 2.25603 34.3326 2.25603V6.25603C35.4255 6.25603 36.1718 7.30004 35.829 8.32847L39.6237 9.59338ZM38.7859 12.2601L39.6343 9.56058L35.8183 8.36127L34.9699 11.0608L38.7859 12.2601ZM34.1784 15.5887C36.2592 15.5887 38.113 14.2798 38.7753 12.2929L34.9805 11.028C34.8716 11.355 34.5657 11.5887 34.1784 11.5887V15.5887ZM30.0134 15.5887H34.1784V11.5887H30.0134V15.5887ZM59.0653 13.4603C59.0441 13.4391 59.0168 13.4091 58.9878 13.3707C58.9585 13.332 58.9339 13.2936 58.9144 13.2584C58.8779 13.1928 58.871 13.1596 58.8907 13.2185L62.6854 11.9536C62.5543 11.5603 62.3487 11.0868 61.8937 10.6319L59.0653 13.4603ZM59.8625 13.8147C59.761 13.8147 59.6439 13.7985 59.5164 13.7521C59.3888 13.7057 59.2236 13.6186 59.0653 13.4603L61.8937 10.6319C61.2795 10.0177 60.4908 9.81472 59.8625 9.81472V13.8147ZM60.6596 13.3832C60.3579 13.6849 60.0279 13.7754 59.8828 13.8017C59.8469 13.8083 59.8191 13.8116 59.802 13.8132C59.7933 13.8141 59.7865 13.8146 59.7822 13.8149C59.7778 13.8152 59.7754 13.8153 59.7752 13.8153C59.775 13.8153 59.7765 13.8153 59.7802 13.8152C59.784 13.8151 59.7893 13.815 59.7968 13.8149C59.8133 13.8147 59.8318 13.8147 59.8625 13.8147V9.81472C59.787 9.81472 59.4834 9.80878 59.1673 9.86626C58.81 9.93121 58.2872 10.0988 57.8312 10.5548L60.6596 13.3832ZM60.4468 13.5412C60.4697 13.5068 60.4656 13.5194 60.4283 13.5567C60.3918 13.5932 60.2982 13.6787 60.1399 13.7578L58.351 10.1801C57.7501 10.4806 57.3596 10.9607 57.1186 11.3223L60.4468 13.5412ZM57.185 18.8187C58.4733 16.9669 59.8208 14.6655 60.5258 13.4123L57.0395 11.4512C56.3561 12.6661 55.0813 14.8383 53.9014 16.5344L57.185 18.8187ZM43.0299 28.777C49.3286 28.5917 53.5351 24.0994 57.1885 18.8137L53.898 16.5394C50.3012 21.7433 47.1033 24.6554 42.9123 24.7787L43.0299 28.777ZM40.4093 28.2305C41.1467 28.5465 42.0324 28.7778 42.9711 28.7778V24.7778C42.6758 24.7778 42.3274 24.7006 41.985 24.5539L40.4093 28.2305ZM36.8334 21.5899C36.3743 24.344 37.8575 27.0711 40.3696 28.2129L42.0248 24.5714C41.1431 24.1707 40.6209 23.1956 40.7789 22.2475L36.8334 21.5899ZM37.752 18.6335C37.2919 19.4616 36.8061 20.5829 36.8061 21.9187H40.8061C40.8061 21.5576 40.9374 21.1363 41.2486 20.5761L37.752 18.6335ZM40.457 16.1962C39.3853 16.732 38.4987 17.5016 37.8362 18.4954L41.1644 20.7142C41.4275 20.3196 41.7749 20.0094 42.2458 19.7739L40.457 16.1962ZM45.4459 15.6383C43.9816 15.3454 42.038 15.4057 40.457 16.1962L42.2458 19.7739C42.8245 19.4846 43.8118 19.3907 44.6614 19.5606L45.4459 15.6383ZM47.8199 16.48C47.0983 16.0676 46.2301 15.7309 45.3017 15.6149L44.8056 19.584C45.1112 19.6222 45.4771 19.7482 45.8353 19.9529L47.8199 16.48ZM45.7654 17.5328C45.759 17.59 45.762 17.477 45.8502 17.2939C45.9518 17.0831 46.1936 16.7338 46.6623 16.5288C47.1091 16.3333 47.4925 16.3882 47.6534 16.4265C47.8059 16.4629 47.8714 16.5094 47.8199 16.48L45.8353 19.9529C46.0537 20.0777 46.3603 20.2303 46.7249 20.3173C47.0979 20.4063 47.6645 20.4564 48.2656 20.1934C49.5113 19.6484 49.6962 18.377 49.7409 17.9745L45.7654 17.5328ZM44.9269 14.6223C45.1461 14.7722 45.388 15.0848 45.5618 15.6864C45.734 16.2825 45.787 16.995 45.7554 17.6585L49.7509 17.8488C49.7964 16.8927 49.7337 15.7154 49.4046 14.5762C49.0771 13.4423 48.4319 12.1737 47.1857 11.321L44.9269 14.6223ZM40.3757 15.3473C41.1648 14.9199 42.1443 14.5344 43.0582 14.387C43.9992 14.2352 44.5792 14.3763 44.9003 14.6037L47.2123 11.3396C45.6824 10.2559 43.8713 10.2041 42.4213 10.438C40.9441 10.6762 39.5327 11.2548 38.4706 11.8301L40.3757 15.3473ZM36.0348 19.0973C37.3284 17.5162 38.7469 16.1946 40.3459 15.3631L38.5005 11.8143C36.243 12.9881 34.422 14.7517 32.939 16.5643L36.0348 19.0973ZM33.8464 22.4224C34.3508 21.2874 35.1331 20.2246 36.0486 19.0802L32.9252 16.5814C31.9896 17.7509 30.9208 19.1562 30.1911 20.7979L33.8464 22.4224ZM27.9889 19.0802C28.8306 20.1323 29.6113 21.3373 30.2512 22.5459L33.7863 20.6744C33.0378 19.2606 32.1218 17.8432 31.1124 16.5814L27.9889 19.0802ZM23.6916 15.3631C25.2906 16.1946 26.7091 17.5162 28.0027 19.0973L31.0985 16.5643C29.6155 14.7517 27.7945 12.9881 25.537 11.8143L23.6916 15.3631ZM19.1058 14.6255C19.4832 14.3689 20.1078 14.2371 21.0372 14.387C21.9467 14.5337 22.8981 14.916 23.6302 15.3298L25.5985 11.8476C24.5566 11.2587 23.1556 10.6769 21.6741 10.438C20.2124 10.2022 18.4075 10.2632 16.8566 11.3178L19.1058 14.6255ZM18.2821 17.6585C18.2505 16.995 18.3035 16.2825 18.4757 15.6864C18.6495 15.0848 18.8914 14.7722 19.1106 14.6223L16.8518 11.321C15.6056 12.1737 14.9604 13.4423 14.6329 14.5762C14.3038 15.7154 14.2411 16.8927 14.2866 17.8488L18.2821 17.6585ZM16.2176 16.48C16.2001 16.49 16.2985 16.4283 16.4906 16.3933C16.7023 16.3548 17.0702 16.3444 17.468 16.5433C17.8658 16.7422 18.0782 17.0428 18.1745 17.2353C18.2618 17.4099 18.2714 17.5256 18.2689 17.5056L14.2998 18.0017C14.3564 18.4543 14.5753 19.5691 15.6792 20.121C16.7831 20.673 17.8062 20.1792 18.2022 19.9529L16.2176 16.48ZM18.7358 15.6149C17.8074 15.7309 16.9392 16.0676 16.2176 16.48L18.2022 19.9529C18.5604 19.7482 18.9263 19.6222 19.232 19.584L18.7358 15.6149ZM23.5805 16.1962C21.9971 15.4045 20.1347 15.3488 18.6153 15.6337L19.3525 19.5652C20.3012 19.3873 21.2155 19.4858 21.7917 19.7739L23.5805 16.1962ZM26.2013 18.4954C25.5388 17.5016 24.6522 16.7321 23.5805 16.1962L21.7917 19.7739C22.2626 20.0094 22.6101 20.3196 22.8731 20.7142L26.2013 18.4954ZM27.2314 21.9187C27.2314 20.7787 26.8972 19.5392 26.2013 18.4954L22.8731 20.7142C23.1028 21.0587 23.2314 21.516 23.2314 21.9187H27.2314ZM23.7002 28.1979C26.1235 27.044 27.5507 24.3492 27.2159 21.6706L23.2468 22.1667C23.3748 23.1904 22.7967 24.1978 21.9805 24.5864L23.7002 28.1979ZM21.0664 28.7778C22.0052 28.7778 22.8908 28.5465 23.6282 28.2305L22.0525 24.5539C21.7101 24.7006 21.3617 24.7778 21.0664 24.7778V28.7778ZM6.84904 18.8137C10.5024 24.0994 14.7089 28.5917 21.0076 28.777L21.1252 24.7787C16.9343 24.6554 13.7364 21.7433 10.1395 16.5394L6.84904 18.8137ZM3.51171 13.4123C4.21667 14.6655 5.56427 16.9669 6.85248 18.8187L10.1361 16.5344C8.95618 14.8383 7.68138 12.6661 6.99801 11.4512L3.51171 13.4123ZM4.15963 13.8663C4.01591 13.8184 3.8343 13.7239 3.66711 13.5567C3.49991 13.3895 3.4054 13.2079 3.35749 13.0642L7.15223 11.7993C6.87603 10.9707 6.25314 10.3478 5.42454 10.0716L4.15963 13.8663ZM4.17505 13.8147C4.07555 13.8147 4.01139 13.7993 3.98626 13.7924C3.95956 13.7852 3.93294 13.7755 3.89766 13.7578L5.68651 10.1801C5.34505 10.0094 4.80436 9.81472 4.17505 9.81472V13.8147ZM4.66741 13.7102C4.75877 13.6493 4.71374 13.6877 4.60931 13.7295C4.54776 13.7541 4.47272 13.7777 4.38778 13.7939C4.30358 13.8099 4.23054 13.8147 4.17505 13.8147V9.81472C3.3425 9.81472 2.77961 10.1613 2.44861 10.382L4.66741 13.7102ZM5.2495 12.586C5.2495 12.9571 5.11389 13.2407 5.01001 13.3965C4.96515 13.4638 4.92897 13.5036 4.92461 13.5083C4.9233 13.5098 4.92768 13.5049 4.97223 13.4603L2.1438 10.6319C2.10423 10.6715 1.2495 11.3965 1.2495 12.586H5.2495ZM4.52658 28.3681C3.64871 23.2472 3.86913 18.061 5.18291 13.0978L1.31609 12.0742C-0.146791 17.6006 -0.389153 23.3667 0.584087 29.044L4.52658 28.3681ZM10.8033 39.6569C9.25602 38.8546 7.8404 37.1413 6.69758 34.9096C5.57501 32.7175 4.84439 30.2749 4.52812 28.3773L0.582544 29.0348C0.960436 31.3022 1.81097 34.1429 3.13726 36.7329C4.4433 39.2832 6.34424 41.8506 8.96199 43.2079L10.8033 39.6569ZM18.9922 38.961C16.6495 40.1701 14.0142 41.3218 10.8033 39.6569L8.96199 43.2079C14.081 45.8622 18.3873 43.7745 20.8267 42.5155L18.9922 38.961ZM23.3869 37.7744C22.5212 37.6013 21.7128 37.7632 21.0292 37.9998C20.355 38.2332 19.6506 38.5941 18.9382 38.9899L20.8807 42.4866C21.5566 42.111 22.0092 41.8935 22.3376 41.7798C22.6567 41.6693 22.6967 41.7156 22.6024 41.6967L23.3869 37.7744ZM24.9167 42.1729C25.5355 41.4303 25.743 40.4308 25.4235 39.5124C25.1039 38.5933 24.2979 37.9014 23.2775 37.7557L22.7118 41.7155C22.2313 41.6468 21.8109 41.302 21.6455 40.8264C21.4803 40.3515 21.6107 39.8919 21.8438 39.6121L24.9167 42.1729ZM21.8568 45.9984L24.942 42.1419L21.8185 39.6431L18.7334 43.4996L21.8568 45.9984ZM21.4078 47.6733C21.2776 47.0223 21.4284 46.4724 21.7694 46.1004L18.8208 43.3975C17.4649 44.8766 17.1529 46.7949 17.4855 48.4578L21.4078 47.6733ZM16.535 53.3382L20.7771 49.5588L18.1163 46.5722L13.8741 50.3516L16.535 53.3382ZM12.9276 52.4708L13.8531 53.3192L16.556 50.3706L15.6304 49.5221L12.9276 52.4708ZM12.7418 48.914C12.7418 49.3514 12.6376 49.8071 12.4901 50.102L16.0679 51.8909C16.5374 50.9517 16.7418 49.8648 16.7418 48.914H12.7418ZM13.1992 49.3714C12.943 49.3714 12.7418 49.1701 12.7418 48.914H16.7418C16.7418 46.961 15.1522 45.3714 13.1992 45.3714V49.3714ZM13.6566 48.914C13.6566 49.1701 13.4553 49.3714 13.1992 49.3714V45.3714C11.2462 45.3714 9.6566 46.961 9.6566 48.914H13.6566ZM9.88262 52.6879C11.856 52.6879 13.6566 51.0771 13.6566 48.914H9.6566C9.6566 48.8321 9.69502 48.7697 9.72374 48.7418C9.74401 48.7221 9.79128 48.6879 9.88262 48.6879V52.6879ZM10.34 52.2305C10.34 52.4867 10.1388 52.6879 9.88262 52.6879V48.6879C7.92963 48.6879 6.34004 50.2775 6.34004 52.2305H10.34ZM9.88262 51.7731C10.1388 51.7731 10.34 51.9744 10.34 52.2305H6.34004C6.34004 54.1835 7.92963 55.7731 9.88262 55.7731V51.7731ZM11.3842 51.4056C10.8489 51.6435 10.3617 51.7731 9.88262 51.7731V55.7731C11.1004 55.7731 12.1558 55.4399 13.0088 55.0608L11.3842 51.4056ZM15.6077 53.5895L13.5252 51.7384L10.8678 54.728L12.9503 56.5791L15.6077 53.5895ZM19.3157 56.9112L15.6135 53.5946L12.9445 56.574L16.6467 59.8905L19.3157 56.9112ZM18.5621 57.0187C18.6824 56.8641 18.8601 56.7953 18.9925 56.7889C19.1038 56.7835 19.2087 56.8174 19.2982 56.8957L16.6642 59.906C18.0071 61.0811 20.3647 61.2165 21.7195 59.4745L18.5621 57.0187ZM18.7587 57.6657C18.604 57.5454 18.5353 57.3677 18.5289 57.2353C18.5234 57.124 18.5574 57.0191 18.6357 56.9296L21.646 59.5636C22.821 58.2207 22.9564 55.8631 21.2145 54.5083L18.7587 57.6657ZM16.255 55.4116L18.646 57.5712L21.3271 54.6028L18.9361 52.4432L16.255 55.4116ZM19.9633 49.1211L16.2611 52.4377L18.9301 55.417L22.6323 52.1005L19.9633 49.1211ZM22.7921 48.9669C22.6497 48.9986 22.4605 48.9717 22.2901 48.8743L20.3055 52.3473C21.2148 52.8669 22.414 53.1486 23.6599 52.8717L22.7921 48.9669ZM28.0266 46.9414C26.2605 47.9397 24.5642 48.7516 22.9968 48.9325L23.4553 52.9061C25.8985 52.6242 28.213 51.4308 29.9948 50.4237L28.0266 46.9414ZM26.2876 56.871C27.3001 56.0337 28.701 54.8882 29.7072 53.5552C30.7354 52.1931 31.6031 50.2941 30.9213 48.0912L27.1001 49.2739C27.2417 49.7314 27.1643 50.2847 26.5146 51.1454C25.8429 52.0352 24.8332 52.8832 23.7385 53.7885L26.2876 56.871ZM26.2623 56.8916L26.2624 56.8915L23.7637 53.768L23.7635 53.7681L26.2623 56.8916ZM25.1225 57.8651C25.4328 57.5787 25.817 57.2602 26.2874 56.8711L23.7383 53.7886C23.2915 54.1581 22.8159 54.5506 22.4094 54.9259L25.1225 57.8651ZM25.0208 57.9677C25.0719 57.9173 25.1268 57.8631 25.1802 57.8097L22.3517 54.9813C22.3084 55.0246 22.2623 55.0701 22.2096 55.1222L25.0208 57.9677ZM24.1707 58.2313C24.201 58.2691 24.2849 58.4112 24.2904 58.62C24.2949 58.7946 24.2401 58.8738 24.2677 58.8211C24.2968 58.7654 24.3675 58.6584 24.5125 58.493C24.6562 58.3291 24.8195 58.1666 25.0209 57.9677L22.2096 55.1223C21.8758 55.452 21.1585 56.1355 20.7237 56.9664C20.4883 57.4162 20.2732 58.0178 20.2917 58.7247C20.3111 59.4658 20.5832 60.15 21.0472 60.7301L24.1707 58.2313ZM25.2474 58.6269C24.8592 58.516 24.5913 58.4361 24.369 58.3372C24.1472 58.2386 24.1401 58.1917 24.1877 58.2528L21.0303 60.7086C21.5502 61.3771 22.2223 61.7604 22.7442 61.9924C23.2655 62.2241 23.8059 62.3751 24.1485 62.473L25.2474 58.6269ZM25.2243 58.6205L25.2242 58.6204L24.1717 62.4795L24.1718 62.4795L25.2243 58.6205ZM25.5747 58.722C25.4634 58.6886 25.3492 58.656 25.2475 58.6269L24.1486 62.473C24.2556 62.5036 24.3438 62.5288 24.4253 62.5533L25.5747 58.722ZM26.8997 59.0892C26.3175 58.8563 25.7546 58.7489 25.3922 58.6765L24.6078 62.5988C25.0167 62.6806 25.225 62.7275 25.4141 62.8031L26.8997 59.0892ZM31.8785 61.4073C30.2734 60.248 28.4894 59.4456 26.6202 59.0005L25.6937 62.8918C27.0639 63.218 28.3651 63.8039 29.5366 64.65L31.8785 61.4073ZM32.0771 61.5543C32.018 61.5107 31.9638 61.4708 31.9076 61.4286L29.5076 64.6286C29.5801 64.683 29.648 64.733 29.7056 64.7754L32.0771 61.5543ZM32.8931 62.2315C32.5871 61.9255 32.2836 61.7063 32.0771 61.5543L29.7056 64.7754C29.9417 64.9493 30.0044 64.9997 30.0646 65.0599L32.8931 62.2315ZM32.0959 61.8771C32.1974 61.8771 32.3144 61.8933 32.4419 61.9396C32.5695 61.986 32.7348 62.0732 32.8931 62.2315L30.0646 65.0599C30.6788 65.6741 31.4675 65.8771 32.0959 65.8771V61.8771ZM31.2987 62.2315C31.457 62.0732 31.6222 61.986 31.7498 61.9396C31.8773 61.8933 31.9944 61.8771 32.0959 61.8771V65.8771C32.7242 65.8771 33.5129 65.6741 34.1271 65.0599L31.2987 62.2315ZM31.8082 61.8135C31.7352 61.8753 31.6901 61.9134 31.65 61.9456C31.6119 61.9762 31.5994 61.9843 31.6035 61.9816L33.8223 65.3098C34.0618 65.1501 34.2787 64.9631 34.3937 64.8656L31.8082 61.8135ZM32.2842 61.4286C32.0886 61.5754 31.9205 61.7184 31.8082 61.8135L34.3937 64.8656C34.5144 64.7634 34.5969 64.6941 34.6842 64.6286L32.2842 61.4286ZM37.6771 58.9784C35.6127 59.3537 33.7829 60.2825 32.2693 61.4399L34.6991 64.6173C35.808 63.7694 37.0633 63.1556 38.3926 62.9139L37.6771 58.9784ZM38.449 58.7807C38.2599 58.8563 38.0516 58.9032 37.6426 58.985L38.4271 62.9073C38.7894 62.8348 39.3524 62.7275 39.9346 62.4946L38.449 58.7807ZM38.8414 58.6605C38.7847 58.6758 38.725 58.6919 38.6655 58.7081L39.7181 62.5671C39.7707 62.5528 39.8245 62.5383 39.8823 62.5227L38.8414 58.6605ZM40.0041 58.2528C40.0353 58.2126 40.0154 58.2653 39.7915 58.3624C39.5573 58.4638 39.2721 58.5445 38.8414 58.6605L39.8822 62.5227C40.2605 62.4208 40.8336 62.2701 41.3817 62.0327C41.9399 61.7908 42.626 61.397 43.1615 60.7086L40.0041 58.2528ZM39.0879 57.8821C39.2754 58.0508 39.4481 58.2103 39.6031 58.3756C39.7616 58.5446 39.856 58.6725 39.9042 58.7568C39.9538 58.8437 39.9038 58.7957 39.9012 58.6415C39.8999 58.5587 39.9131 58.4681 39.9435 58.3816C39.9734 58.2965 40.0089 58.2465 40.0211 58.2313L43.1445 60.7301C43.6511 60.0969 43.9137 59.354 43.9007 58.5748C43.8885 57.8422 43.636 57.2253 43.3771 56.7723C42.8863 55.9132 42.1234 55.2326 41.7638 54.9089L39.0879 57.8821ZM37.7994 56.7601C38.3159 57.1918 38.7246 57.5347 39.0408 57.8383L41.8109 54.9527C41.375 54.5342 40.8498 54.0965 40.3647 53.6911L37.7994 56.7601ZM37.9726 56.8897L37.9727 56.8897L40.1915 53.5615L40.1914 53.5615L37.9726 56.8897ZM33.2705 48.0912C32.5985 50.2623 33.4461 52.1362 34.452 53.4817C35.4356 54.7973 36.807 55.9306 37.7994 56.7601L40.3647 53.691C39.2904 52.793 38.3077 51.9587 37.6557 51.0865C37.026 50.2443 36.9565 49.7105 37.0916 49.2739L33.2705 48.0912ZM41.2699 48.9426C39.6232 48.6892 37.8689 47.9044 36.1652 46.9414L34.197 50.4237C36.0412 51.4661 38.2977 52.5324 40.6617 52.8961L41.2699 48.9426ZM41.8246 48.8743C41.7631 48.9095 41.6076 48.9783 41.1866 48.9316L40.7449 52.9071C41.7123 53.0146 42.7908 52.9292 43.8092 52.3473L41.8246 48.8743ZM47.7746 52.3589L44.1495 49.1195L41.4842 52.1021L45.1093 55.3415L47.7746 52.3589ZM48.3645 54.5124C48.3703 54.4834 48.442 54.1688 48.442 53.8502H44.442C44.442 53.7886 44.4457 53.7416 44.4483 53.7152C44.451 53.6879 44.4537 53.6703 44.4544 53.666C44.4551 53.6615 44.4549 53.6632 44.4527 53.6751C44.4503 53.6877 44.4474 53.7021 44.4422 53.7279L48.3645 54.5124ZM48.3762 54.4491L48.3762 54.449L44.4306 53.7914L44.4306 53.7915L48.3762 54.4491ZM48.3648 54.3901C48.3648 54.4518 48.3611 54.4988 48.3585 54.5252C48.3558 54.5524 48.3531 54.5701 48.3524 54.5743C48.3517 54.5788 48.3519 54.5771 48.3541 54.5653C48.3565 54.5527 48.3594 54.5382 48.3645 54.5124L44.4422 53.7281C44.4364 53.7571 44.3648 54.0716 44.3648 54.3901H48.3648ZM51.224 57.2493C49.629 57.2493 48.3648 55.9851 48.3648 54.3901H44.3648C44.3648 58.1942 47.4199 61.2493 51.224 61.2493V57.2493ZM54.0831 54.3901C54.0831 55.9851 52.8189 57.2493 51.224 57.2493V61.2493C55.0281 61.2493 58.0831 58.1942 58.0831 54.3901H54.0831ZM51.224 51.531C52.8189 51.531 54.0831 52.7952 54.0831 54.3901H58.0831C58.0831 50.586 55.0281 47.531 51.224 47.531V51.531ZM49.2275 52.3479C49.6747 51.86 50.3623 51.531 51.224 51.531V47.531C49.309 47.531 47.5285 48.2818 46.2788 49.645L49.2275 52.3479ZM43.33 49.7064L46.4152 52.483L49.0911 49.5099L46.0059 46.7332L43.33 49.7064ZM42.2928 46.118C42.7038 46.6037 42.8324 47.1999 42.7068 47.8276L46.6291 48.612C46.9664 46.9258 46.6321 45.0538 45.3463 43.5342L42.2928 46.118ZM39.1726 42.219L42.2578 46.0755L45.3813 43.5767L42.2961 39.7202L39.1726 42.219ZM40.7912 37.8399C39.6046 38.0377 38.97 38.9548 38.7406 39.643C38.5066 40.3451 38.4921 41.3683 39.1726 42.219L42.2961 39.7202C42.6682 40.1853 42.6151 40.6686 42.5353 40.9079C42.4602 41.1333 42.1727 41.6648 41.4488 41.7855L40.7912 37.8399ZM45.0996 39.0265C44.4413 38.6974 43.7491 38.3481 43.1176 38.1173C42.4837 37.8857 41.6449 37.6681 40.7278 37.8515L41.5123 41.7738C41.3664 41.803 41.3761 41.7396 41.7448 41.8744C42.116 42.01 42.5807 42.2392 43.3107 42.6042L45.0996 39.0265ZM44.8377 38.918L44.8376 38.918L43.5727 42.7127L43.5727 42.7127L44.8377 38.918ZM53.2858 39.7475C50.1013 41.4577 47.5019 40.2662 45.1225 39.0381L43.2879 42.5926C45.6906 43.8327 50.0327 46.0349 55.1783 43.2715L53.2858 39.7475ZM59.5928 28.419C59.2362 30.3444 58.4999 32.7986 57.3852 34.9925C56.2494 37.2281 54.8527 38.9348 53.3114 39.734L55.1527 43.285C57.7763 41.9246 59.6576 39.3507 60.9514 36.8043C62.2663 34.2162 63.1111 31.387 63.5259 29.1474L59.5928 28.419ZM58.8461 13.0645C60.0936 18.128 60.3158 23.3454 59.5794 28.5003L63.5392 29.066C64.3454 23.4229 64.1048 17.6879 62.73 12.1076L58.8461 13.0645ZM51.224 50.4619C49.5469 50.4619 48.1189 51.5961 47.6298 53.0635L51.4245 54.3284C51.4123 54.3651 51.3981 54.3878 51.3892 54.3998C51.3804 54.4117 51.3724 54.4192 51.3648 54.4248C51.3531 54.4335 51.3081 54.4619 51.224 54.4619V50.4619ZM54.998 54.2359C54.998 52.2625 53.3871 50.4619 51.224 50.4619V54.4619C51.1421 54.4619 51.0797 54.4235 51.0518 54.3948C51.0321 54.3745 50.998 54.3272 50.998 54.2359H54.998ZM51.224 58.0099C53.1974 58.0099 54.998 56.399 54.998 54.2359H50.998C50.998 54.154 51.0364 54.0916 51.0651 54.0637C51.0854 54.044 51.1326 54.0099 51.224 54.0099V58.0099ZM47.45 54.2359C47.45 56.2093 49.0609 58.0099 51.224 58.0099V54.0099C51.3058 54.0099 51.3683 54.0483 51.3961 54.077C51.4158 54.0973 51.45 54.1445 51.45 54.2359H47.45ZM47.7383 52.8015C47.5393 53.1995 47.4884 53.5785 47.4696 53.7669C47.4485 53.9772 47.45 54.1699 47.45 54.2359H51.45C51.45 54.1476 51.4515 54.1475 51.4497 54.1649C51.4483 54.1788 51.4435 54.222 51.4287 54.2847C51.4145 54.3448 51.3834 54.4556 51.316 54.5904L47.7383 52.8015Z" fill="#A5FF14" mask="url(#path-1-outside-1_0_1865)"/>
</svg>
