<?xml version="1.0" encoding="UTF-8"?>
<svg width="89px" height="69px" viewBox="0 0 89 69" version="1.1" xmlns="http://www.w3.org/2000/svg" xmlns:xlink="http://www.w3.org/1999/xlink">
    <title>Path 7 Copy</title>
    <g id="1920" stroke="none" stroke-width="1" fill="none" fill-rule="evenodd">
        <g id="1-кейс-брига" transform="translate(-1551.000000, -8186.000000)" fill="#C932BA" fill-rule="nonzero">
            <g id="Group-12" transform="translate(-0.500000, 7356.000000)">
                <path d="M1565.82542,844.675373 C1566.17101,843.741529 1566.52784,842.840366 1566.89583,841.971897 L1563.21282,840.4113 C1562.8204,841.33743 1562.44083,842.296028 1562.07406,843.287106 L1565.82542,844.675373 Z M1568.09478,839.338474 C1568.52866,838.452133 1568.97606,837.606257 1569.43684,836.800825 L1565.96485,834.814546 C1565.46079,835.695634 1564.97326,836.61739 1564.50214,837.579792 L1568.09478,839.338474 Z M1570.95411,834.365501 C1571.49986,833.562933 1572.06189,832.811006 1572.64001,832.109543 L1569.55325,829.565545 C1568.89579,830.363273 1568.26024,831.213571 1567.64641,832.116263 L1570.95411,834.365501 Z M1574.52388,830.057125 C1575.19841,829.40103 1575.89229,828.805978 1576.60556,828.271423 L1574.20669,825.070573 C1573.35472,825.709084 1572.53078,826.415668 1571.73491,827.189779 L1574.52388,830.057125 Z M1578.87725,826.808284 C1579.67241,826.375237 1580.49054,826.008119 1581.33242,825.706442 L1579.98309,821.940901 C1578.94653,822.312337 1577.93996,822.764015 1576.96415,823.295445 L1578.87725,826.808284 Z M1583.97021,824.989558 C1584.84365,824.82353 1585.74227,824.719617 1586.66675,824.678097 L1586.48729,820.682125 C1585.37392,820.732128 1584.28568,820.857968 1583.22324,821.059921 L1583.97021,824.989558 Z M1589.47878,824.737696 C1590.3762,824.813008 1591.29608,824.941374 1592.23849,825.123134 L1592.996,821.195516 C1591.91566,820.987156 1590.85473,820.839106 1589.81328,820.751707 L1589.47878,824.737696 Z M1594.89124,825.759055 C1595.27709,825.868907 1595.66636,825.987006 1596.05904,826.113366 C1596.36175,826.210805 1596.709,826.385341 1597.09644,826.643365 L1599.31366,823.314109 C1598.63513,822.862222 1597.9614,822.523598 1597.28449,822.305708 C1596.84881,822.165509 1596.41621,822.034264 1595.98653,821.911932 L1594.89124,825.759055 Z M1599.05064,828.346647 C1599.6267,828.950208 1600.22943,829.660371 1600.85396,830.471995 L1604.02407,828.032646 C1603.31692,827.11366 1602.62334,826.296452 1601.94422,825.584911 L1599.05064,828.346647 Z M1602.5242,832.807982 C1603.03582,833.571769 1603.55639,834.391314 1604.08408,835.263591 L1607.50654,833.19313 C1606.9478,832.269545 1606.39434,831.398217 1605.84753,830.581891 L1602.5242,832.807982 Z M1605.54267,837.776607 C1606.00526,838.605283 1606.47103,839.469263 1606.93879,840.366248 L1610.4855,838.516689 C1610.00048,837.586617 1609.51673,836.689289 1609.03534,835.826927 L1605.54267,837.776607 Z M1608.27808,843.013679 C1608.7036,843.879854 1609.12926,844.77011 1609.55416,845.682508 L1613.18024,843.99387 C1612.74376,843.056592 1612.30614,842.141323 1611.86826,841.249975 L1608.27808,843.013679 Z M1610.7851,848.392645 C1611.18026,849.284266 1611.57355,850.192663 1611.96424,851.116124 L1615.64812,849.557579 C1615.24869,848.613458 1614.84642,847.684338 1614.44205,846.771923 L1610.7851,848.392645 Z M1613.10365,853.870379 C1613.47174,854.780202 1613.83644,855.701436 1614.19713,856.632538 L1617.92705,855.187647 C1617.55923,854.238138 1617.18723,853.298481 1616.81168,852.370218 L1613.10365,853.870379 Z M1615.24058,859.383958 C1615.58371,860.308224 1615.92218,861.239677 1616.25545,862.176904 L1620.02426,860.836749 C1619.68483,859.882175 1619.34006,858.933393 1618.99051,857.991818 L1615.24058,859.383958 Z M1617.23016,864.978142 C1617.5491,865.915161 1617.86221,866.855769 1618.16902,867.798658 L1621.97272,866.560987 C1621.66034,865.600963 1621.34155,864.64327 1621.0168,863.689215 L1617.23016,864.978142 Z M1619.07215,870.639672 C1619.36651,871.587981 1619.65387,872.536614 1619.93381,873.484351 L1623.76996,872.351235 C1623.48481,871.385851 1623.19213,870.419652 1622.89234,869.453859 L1619.07215,870.639672 Z M1620.75749,876.34689 C1621.02601,877.305651 1621.28629,878.261598 1621.53797,879.213575 L1625.4051,878.191188 C1625.14842,877.220302 1624.88303,876.245567 1624.60928,875.268136 L1620.75749,876.34689 Z M1622.27808,882.10168 C1622.51828,883.070041 1622.74887,884.032367 1622.96952,884.987552 L1626.86688,884.087254 C1626.64137,883.110998 1626.40577,882.127775 1626.16043,881.138684 L1622.27808,882.10168 Z M1623.61409,887.890482 C1623.82231,888.868432 1624.01926,889.836808 1624.20467,890.794524 L1628.13176,890.034281 C1627.94161,889.052078 1627.73973,888.059469 1627.52641,887.05752 L1623.61409,887.890482 Z M1624.73886,893.70944 C1624.9092,894.696074 1625.06622,895.668955 1625.20964,896.626987 L1629.16556,896.034769 C1629.01767,895.046939 1628.85591,894.044639 1628.68055,893.028927 L1624.73886,893.70944 Z M1625.61099,899.552916 C1625.73448,900.547578 1625.84188,901.523107 1625.93292,902.478349 L1629.91488,902.098826 C1629.82018,901.105242 1629.70863,900.091965 1629.58051,899.060076 L1625.61099,899.552916 Z M1626.1649,905.41206 C1626.22235,906.33881 1626.26257,907.242622 1626.28538,908.122462 L1630.28403,908.018824 C1630.25997,907.090232 1630.21762,906.13851 1630.15724,905.164574 L1626.1649,905.41206 Z" id="Path-7-Copy" transform="translate(1596.179048, 864.402294) rotate(-270.000000) translate(-1596.179048, -864.402294) "></path>
            </g>
        </g>
    </g>
</svg>