<?xml version="1.0" encoding="UTF-8"?>
<svg width="96px" height="281px" viewBox="0 0 96 281" version="1.1" xmlns="http://www.w3.org/2000/svg" xmlns:xlink="http://www.w3.org/1999/xlink">
    <title>lk</title>
    <g id="1920" stroke="none" stroke-width="1" fill="none" fill-rule="evenodd">
        <g id="1-кейс-брига" transform="translate(-498.000000, -10365.000000)" fill="#C932BA" fill-rule="nonzero">
            <path d="M502.699975,10397.3037 C502.913421,10396.3273 503.138418,10395.3769 503.374932,10394.4525 L499.499775,10393.461 C499.251465,10394.4314 499.015636,10395.4276 498.792254,10396.4494 L502.699975,10397.3037 Z M504.153889,10391.6407 C504.439105,10390.6884 504.738032,10389.7675 505.050606,10388.8781 L501.276839,10387.5519 C500.943249,10388.5012 500.625011,10389.4816 500.322061,10390.4931 L504.153889,10391.6407 Z M506.088234,10386.1609 C506.466005,10385.2502 506.860298,10384.3782 507.270994,10383.545 L503.68314,10381.7766 C503.233727,10382.6884 502.803879,10383.639 502.393478,10384.6284 L506.088234,10386.1609 Z M508.623002,10381.0413 C509.117009,10380.2071 509.6309,10379.4208 510.164499,10378.6824 L506.922359,10376.3396 C506.316576,10377.1779 505.736247,10378.0658 505.181198,10379.0032 L508.623002,10381.0413 Z M511.932528,10376.4896 C512.563913,10375.7904 513.218877,10375.1486 513.897441,10374.5635 L511.285413,10371.5341 C510.479448,10372.229 509.705621,10372.9874 508.963954,10373.8086 L511.932528,10376.4896 Z M516.066013,10372.9379 C516.829889,10372.4453 517.620963,10372.014 518.439889,10371.6434 L516.790973,10367.9991 C515.791934,10368.4511 514.827476,10368.977 513.898254,10369.5762 L516.066013,10372.9379 Z M521.030928,10370.6995 C521.891232,10370.4569 522.780392,10370.272 523.699038,10370.145 L523.151294,10366.1827 C522.0524,10366.3346 520.983505,10366.5569 519.945238,10366.8497 L521.030928,10370.6995 Z M526.523603,10369.9382 C527.427104,10369.9274 528.356402,10369.9661 529.311621,10370.0549 L529.681622,10366.072 C528.589242,10365.9705 527.520489,10365.9259 526.475485,10365.9385 L526.523603,10369.9382 Z M531.990345,10370.4226 C532.897078,10370.5856 533.82479,10370.7895 534.773431,10371.0347 L535.774262,10367.1619 C534.729978,10366.892 533.704473,10366.6666 532.697697,10366.4857 L531.990345,10370.4226 Z M537.55112,10371.8507 C538.441956,10372.1428 539.349488,10372.4683 540.273657,10372.8273 L541.722226,10369.0988 C540.732043,10368.7141 539.757012,10368.3644 538.797071,10368.0497 L537.55112,10371.8507 Z M542.979462,10373.9534 L543.430057,10374.155 C544.122633,10374.4677 544.804203,10374.8168 545.478301,10375.204 L547.470369,10371.7353 C546.684691,10371.2841 545.887776,10370.8759 545.076221,10370.5094 L544.599471,10370.2962 L542.979462,10373.9534 Z M547.819894,10376.7234 C548.562648,10377.2622 549.295569,10377.8494 550.018672,10378.4849 L552.659181,10375.4803 C551.84367,10374.7636 551.013545,10374.0985 550.168642,10373.4856 L547.819894,10376.7234 Z M552.075833,10380.4502 C552.723268,10381.1195 553.362243,10381.8293 553.99272,10382.5794 L557.054773,10380.0058 C556.365199,10379.1853 555.663977,10378.4064 554.950923,10377.6692 L552.075833,10380.4502 Z M555.789348,10384.8568 C556.350838,10385.6134 556.905048,10386.4033 557.451959,10387.2262 L560.783375,10385.0122 C560.198635,10384.1324 559.604688,10383.2859 559.001397,10382.473 L555.789348,10384.8568 Z M559.005736,10389.6857 C559.497677,10390.5038 559.983284,10391.3498 560.462558,10392.2235 L563.969519,10390.2996 C563.465132,10389.3802 562.953238,10388.4884 562.433741,10387.6245 L559.005736,10389.6857 Z M561.819208,10394.8038 C562.2518,10395.6616 562.678897,10396.5428 563.10051,10397.4474 L566.726023,10395.7575 C566.287179,10394.816 565.842112,10393.8977 565.390755,10393.0027 L561.819208,10394.8038 Z M564.312683,10400.1469 C564.695989,10401.0326 565.074489,10401.9383 565.448199,10402.8639 L569.157291,10401.3664 C568.771363,10400.4105 568.380163,10399.4744 567.98364,10398.5582 L564.312683,10400.1469 Z M566.531035,10405.6369 C566.874946,10406.5472 567.214571,10407.475 567.549927,10408.4202 L571.319704,10407.0828 C570.975378,10406.1123 570.626454,10405.159 570.272891,10404.2232 L566.531035,10405.6369 Z M568.519398,10411.2368 C568.828134,10412.1611 569.133056,10413.1008 569.434182,10414.0558 L573.249015,10412.8528 C572.941167,10411.8765 572.629292,10410.9154 572.31336,10409.9696 L568.519398,10411.2368 Z M570.298119,10416.8722 C570.577884,10417.8096 570.854203,10418.7607 571.127094,10419.7254 L574.976073,10418.6367 C574.698008,10417.6537 574.416348,10416.6842 574.131064,10415.7283 L570.298119,10416.8722 Z M571.91294,10422.5764 C572.167543,10423.5242 572.41901,10424.4843 572.667358,10425.4567 L576.542948,10424.4668 C576.290546,10423.4786 576.0349,10422.5025 575.775987,10421.5387 L571.91294,10422.5764 Z M573.385434,10428.3379 C573.618078,10429.2945 573.847847,10430.2623 574.074758,10431.2412 L577.971438,10430.3379 C577.7413,10429.3451 577.508209,10428.3633 577.272144,10427.3927 L573.385434,10428.3379 Z M574.734455,10434.1547 C574.946931,10435.1154 575.156775,10436.0862 575.364003,10437.0671 L579.27762,10436.2403 C579.067798,10435.2471 578.855288,10434.264 578.640069,10433.2909 L574.734455,10434.1547 Z M575.969018,10439.9962 C576.16381,10440.9608 576.356175,10441.9347 576.546127,10442.9178 L580.473487,10442.159 C580.281424,10441.1649 580.086891,10440.1801 579.889871,10439.2045 L575.969018,10439.9962 Z M577.101127,10445.8534 C577.280341,10446.8223 577.4573,10447.7996 577.632019,10448.7855 L581.570646,10448.0875 C581.394189,10447.0918 581.215446,10446.1046 581.034401,10445.1259 L577.101127,10445.8534 Z M578.144722,10451.7406 C578.310085,10452.7143 578.47334,10453.6959 578.634501,10454.6853 L582.582476,10454.0423 C582.419871,10453.044 582.255134,10452.0535 582.08825,10451.0709 L578.144722,10451.7406 Z M579.105638,10457.6385 C579.258036,10458.6138 579.408466,10459.5964 579.556941,10460.5863 L583.512696,10459.9931 C583.363015,10458.9951 583.211348,10458.0043 583.057681,10457.0209 L579.105638,10457.6385 Z M579.992294,10463.5488 C580.133087,10464.5266 580.272032,10465.5113 580.409141,10466.5028 L584.371436,10465.9549 C584.233311,10464.956 584.093325,10463.964 583.951465,10462.9787 L579.992294,10463.5488 Z M580.812113,10469.4762 C580.942433,10470.4574 581.07101,10471.4451 581.197855,10472.4391 L585.165682,10471.9328 C585.037976,10470.932 584.908519,10469.9376 584.777295,10468.9496 L580.812113,10469.4762 Z M581.571607,10475.4274 C581.692393,10476.4128 581.811525,10477.4042 581.929017,10478.4017 L585.901552,10477.9337 C585.783328,10476.9301 585.663445,10475.9324 585.54189,10474.9408 L581.571607,10475.4274 Z M582.271785,10481.3697 C582.383471,10482.3562 582.493595,10483.3485 582.602169,10484.3463 L586.5787,10483.9137 C586.469501,10482.91 586.358737,10481.9121 586.246395,10480.9198 L582.271785,10481.3697 Z M582.920719,10487.3327 L583.226261,10490.3134 L587.206219,10489.9135 L586.899032,10486.9168 L582.920719,10487.3327 Z M587.5005,10492.9006 L583.519024,10493.2851 L583.800746,10496.2607 L587.783631,10495.8911 C587.690655,10494.8893 587.596282,10493.8924 587.5005,10492.9006 Z M584.069703,10499.2167 C584.157936,10500.2059 584.244837,10501.1999 584.330417,10502.1987 L588.315814,10501.8572 L588.053886,10498.8613 L584.069703,10499.2167 Z M584.580906,10505.1814 C584.662477,10506.1726 584.742779,10507.1684 584.821824,10508.1687 L588.809395,10507.8536 L588.567429,10504.8533 L584.580906,10505.1814 Z M585.050999,10511.1281 L585.272677,10514.11 L589.262112,10513.8194 L589.039533,10510.8255 L585.050999,10511.1281 Z M585.486829,10517.1123 L585.690883,10520.0951 L589.681938,10519.8277 L589.477107,10516.8336 L585.486829,10517.1123 Z M585.886866,10523.0829 L586.074766,10526.0717 L590.067216,10525.826 L589.878644,10522.8265 L585.886866,10523.0829 Z M586.254311,10529.0528 L586.426695,10532.0418 L590.420344,10531.8165 L590.247381,10528.8174 L586.254311,10529.0528 Z M586.591898,10535.0352 L586.749717,10538.025 L590.7444,10537.8188 L590.586084,10534.8196 L586.591898,10535.0352 Z M586.900903,10541.0215 L587.044947,10544.0102 L591.040519,10543.822 L590.896049,10540.8245 L586.900903,10541.0215 Z M587.182637,10547.003 L587.313892,10549.9937 L591.310225,10549.8225 L591.178605,10546.8234 L587.182637,10547.003 Z M587.439303,10552.9918 L587.558483,10555.9835 L591.555466,10555.8281 L591.435975,10552.8287 L587.439303,10552.9918 Z M587.672021,10558.9784 L587.779933,10561.9725 L591.777467,10561.8321 L591.669291,10558.8307 L587.672021,10558.9784 Z M587.882666,10564.9735 L587.979876,10567.966 L591.977876,10567.8396 L591.880443,10564.8402 L587.882666,10564.9735 Z M588.072265,10570.9661 L588.159558,10573.959 L592.157949,10573.8455 L592.07047,10570.8462 L588.072265,10570.9661 Z M588.242492,10576.9645 L588.320658,10579.9618 L592.319375,10579.8604 L592.241053,10576.8572 L588.242492,10576.9645 Z M588.394388,10582.9557 L588.463984,10585.9511 L592.462967,10585.8609 L592.393244,10582.86 L588.394388,10582.9557 Z M588.529555,10588.945 L588.591401,10591.9428 L592.5906,10591.8627 L592.528652,10588.86 L588.529555,10588.945 Z M588.649529,10594.9354 L588.70434,10597.9336 L592.703712,10597.8627 L592.64882,10594.8601 L588.649529,10594.9354 Z M588.75616,10600.9456 L588.804718,10603.9433 L592.804224,10603.8804 L592.755603,10600.8789 L588.75616,10600.9456 Z M588.850398,10606.9345 L588.893641,10609.9322 L592.893247,10609.8761 L592.849958,10606.8751 L588.850398,10606.9345 Z M588.934846,10612.9486 L588.973797,10615.9473 L592.973475,10615.8966 L592.934491,10612.8954 L588.934846,10612.9486 Z M589.010953,10618.9384 L589.046837,10621.9368 L593.046559,10621.8896 L593.010657,10618.8897 L589.010953,10618.9384 Z M589.081909,10624.9507 L589.116236,10627.9496 L593.115976,10627.9039 L593.081644,10624.9046 L589.081909,10624.9507 Z M589.150523,10630.9521 L589.185262,10633.9523 L593.184987,10633.9054 L593.150261,10630.9062 L589.150523,10630.9521 Z M589.221207,10636.9581 L589.259025,10639.9591 L593.258685,10639.907 L593.220908,10636.9091 L589.221207,10636.9581 Z M589.299694,10642.9577 L589.344503,10645.9606 L593.344006,10645.8976 L593.299292,10642.901 L589.299694,10642.9577 Z" id="lk"></path>
        </g>
    </g>
</svg>