<?xml version="1.0" encoding="UTF-8"?>
<svg width="92px" height="101px" viewBox="0 0 92 101" version="1.1" xmlns="http://www.w3.org/2000/svg" xmlns:xlink="http://www.w3.org/1999/xlink">
    <title>Path 7</title>
    <g id="1920" stroke="none" stroke-width="1" fill="none" fill-rule="evenodd">
        <g id="1-кейс-брига" transform="translate(-860.000000, -12634.000000)" fill="#C932BA" fill-rule="nonzero">
            <path d="M864.038224,12668.4555 C864.617611,12667.645 865.199775,12666.8512 865.784708,12666.074 L862.588734,12663.6686 C861.984003,12664.4721 861.382486,12665.2923 860.784175,12666.1293 L864.038224,12668.4555 Z M867.585828,12663.7445 C868.2035,12662.9672 868.824178,12662.2081 869.447855,12661.4673 L866.387842,12658.8912 C865.739739,12659.661 865.095199,12660.4493 864.454215,12661.2559 L867.585828,12663.7445 Z M871.377862,12659.2436 C872.03852,12658.5057 872.70245,12657.7879 873.369641,12657.0901 L870.478604,12654.3257 C869.78103,12655.0553 869.087437,12655.8051 868.397815,12656.5754 L871.377862,12659.2436 Z M875.434556,12655.0048 C876.141301,12654.3162 876.851604,12653.6496 877.565457,12653.0051 L874.884916,12650.0361 C874.133201,12650.7148 873.385934,12651.4161 872.643103,12652.1399 L875.434556,12655.0048 Z M879.778832,12651.0868 C880.53499,12650.4585 881.295027,12649.8545 882.058936,12649.2747 L879.640573,12646.0885 C878.829617,12646.7041 878.023615,12647.3446 877.222563,12648.0102 L879.778832,12651.0868 Z M884.427754,12647.5628 C885.233854,12647.0092 886.044175,12646.482 886.858719,12645.9812 L884.763561,12642.5738 C883.891383,12643.1101 883.024653,12643.674 882.163373,12644.2654 L884.427754,12647.5628 Z M889.34438,12644.5416 C890.197811,12644.0776 891.055824,12643.6417 891.91844,12643.2341 L890.209557,12639.6176 C889.278367,12640.0576 888.353014,12640.5276 887.43352,12641.0276 L889.34438,12644.5416 Z M894.574482,12642.0741 C895.469672,12641.7148 896.369819,12641.3851 897.274968,12641.0851 L896.016355,12637.2882 C895.033004,12637.6142 894.05569,12637.9721 893.084456,12638.362 L894.574482,12642.0741 Z M900.05091,12640.2618 C900.978961,12640.0186 901.912325,12639.8058 902.851066,12639.6233 L902.087833,12635.6968 C901.064863,12635.8956 900.047881,12636.1275 899.03695,12636.3924 L900.05091,12640.2618 Z M905.716624,12639.1627 C906.66418,12639.0419 907.617285,12638.9512 908.576003,12638.8908 L908.324272,12634.8987 C907.280705,12634.9645 906.242833,12635.0632 905.210719,12635.1948 L905.716624,12639.1627 Z M911.494975,12638.8 C912.448748,12638.8004 913.408113,12638.83 914.373119,12638.8889 L914.616513,12634.8963 C913.571345,12634.8326 912.531438,12634.8005 911.49684,12634.8 L911.494975,12638.8 Z M917.15394,12639.1374 C918.101707,12639.2488 919.054894,12639.3877 920.013529,12639.5542 L920.698166,12635.6133 C919.667528,12635.4342 918.641685,12635.2847 917.620665,12635.1647 L917.15394,12639.1374 Z M922.870312,12640.1286 C923.802917,12640.3413 924.740604,12640.5796 925.683384,12640.8435 L926.761693,12636.9916 C925.756723,12636.7103 924.756099,12636.456 923.75983,12636.2288 L922.870312,12640.1286 Z M928.366081,12641.714 C929.240085,12642.0502 930.081613,12642.4308 930.891328,12642.8552 L932.748183,12639.3123 C931.801749,12638.8163 930.819768,12638.3721 929.802318,12637.9807 L928.366081,12641.714 Z M933.279266,12644.2958 C934.037194,12644.818 934.763236,12645.385 935.457954,12645.9964 L938.100569,12642.9936 C937.287806,12642.2783 936.437148,12641.614 935.54849,12641.0018 L933.279266,12644.2958 Z M937.43459,12647.9477 C938.050633,12648.628 938.637508,12649.3498 939.195493,12650.1128 L942.424122,12647.7514 C941.784763,12646.8772 941.110022,12646.0473 940.399518,12645.2627 L937.43459,12647.9477 Z M940.755042,12652.477 C941.228892,12653.2734 941.676925,12654.1056 942.099294,12654.9729 L945.695481,12653.2215 C945.224978,12652.2554 944.724178,12651.3252 944.192637,12650.4318 L940.755042,12652.477 Z M943.247104,12657.5724 C943.595085,12658.4435 943.920617,12659.344 944.22385,12660.273 L948.026406,12659.0318 C947.696819,12658.022 947.342041,12657.0407 946.961696,12656.0886 L943.247104,12657.5724 Z M945.047247,12663.0707 C945.289564,12663.9881 945.512431,12664.9291 945.716016,12665.8929 L949.629658,12665.0663 C949.412453,12664.038 949.174213,12663.0321 948.914632,12662.0492 L945.047247,12663.0707 Z M946.259844,12668.7958 C946.415429,12669.7411 946.554067,12670.7051 946.675936,12671.6871 L950.645484,12671.1944 C950.517177,12670.1606 950.371016,12669.1442 950.20674,12668.1462 L946.259844,12668.7958 Z M946.982084,12674.5799 C947.066874,12675.5408 947.136744,12676.5165 947.191883,12677.5061 L951.185689,12677.2836 C951.128174,12676.2513 951.055224,12675.2327 950.966601,12674.2283 L946.982084,12674.5799 Z M947.310865,12680.4225 C947.336411,12681.3929 947.348657,12682.3745 947.347809,12683.3666 L951.347807,12683.37 C951.348686,12682.342 951.335988,12681.3242 951.309479,12680.3173 L947.310865,12680.4225 Z M947.307908,12686.3076 C947.282567,12687.2832 947.245252,12688.2669 947.196192,12689.2579 L951.1913,12689.4557 C951.241896,12688.4337 951.280398,12687.4186 951.306559,12686.4114 L947.307908,12686.3076 Z M947.016121,12692.2222 C946.945888,12693.2005 946.864792,12694.1839 946.773104,12695.1711 L950.755965,12695.541 C950.850216,12694.5262 950.933608,12693.515 951.005854,12692.5086 L947.016121,12692.2222 Z M946.468018,12698.1303 C946.357177,12699.1095 946.236456,12700.09 946.106198,12701.0707 L950.071376,12701.5974 C950.205007,12700.5913 950.328876,12699.5851 950.442631,12698.5803 L946.468018,12698.1303 Z M945.685588,12704.0221 C945.536744,12705.0003 945.378974,12705.9756 945.212754,12706.9461 L949.155354,12707.6213 C949.325746,12706.6264 949.487477,12705.6267 949.640066,12704.6239 L945.685588,12704.0221 Z M944.683034,12709.8744 C944.496671,12710.8521 944.302437,12711.8208 944.101052,12712.7778 L948.015335,12713.6015 C948.221944,12712.6196 948.42117,12711.626 948.612291,12710.6233 L944.683034,12709.8744 Z M943.468505,12715.6446 C943.242413,12716.6228 943.009965,12717.582 942.772394,12718.5179 L946.64944,12719.502 C946.894079,12718.5383 947.133263,12717.5513 947.365768,12716.5453 L943.468505,12715.6446 Z M942.008092,12721.3859 C941.732986,12722.3688 941.454679,12723.3118 941.175717,12724.2072 L944.994676,12725.397 C945.28537,12724.4639 945.574656,12723.4837 945.860064,12722.464 L942.008092,12721.3859 Z M940.265103,12726.9539 C940.163224,12727.2414 940.06204,12727.5201 939.961742,12727.7896 L939.663698,12728.5701 C939.516198,12728.9461 939.371123,12729.3004 939.229123,12729.6316 L942.905468,12731.2079 C943.2726,12730.3516 943.651348,12729.3735 944.035285,12728.2902 L940.265103,12726.9539 Z M938.047568,12731.9401 L938.018844,12731.9812 L941.28171,12734.295 L941.340121,12734.2114 L938.047568,12731.9401 Z" id="Path-7"></path>
        </g>
    </g>
</svg>