<?xml version="1.0" encoding="UTF-8"?>
<svg width="103px" height="253px" viewBox="0 0 103 253" version="1.1" xmlns="http://www.w3.org/2000/svg" xmlns:xlink="http://www.w3.org/1999/xlink">
    <title>Path 7 Copy 2</title>
    <g id="1920" stroke="none" stroke-width="1" fill="none" fill-rule="evenodd">
        <g id="1-кейс-брига" transform="translate(-1249.000000, -11124.000000)" fill="#C932BA" fill-rule="nonzero">
            <path d="M1253.1916,11153.3961 C1253.57324,11152.4775 1253.9639,11151.584 1254.36354,11150.7157 L1250.72986,11149.0434 C1250.3091,11149.9577 1249.8984,11150.897 1249.49773,11151.8614 L1253.1916,11153.3961 Z M1255.63818,11148.0903 C1256.08914,11147.2103 1256.55044,11146.3595 1257.02205,11145.538 L1253.55305,11143.5465 C1253.04951,11144.4237 1252.55796,11145.3302 1252.07835,11146.2662 L1255.63818,11148.0903 Z M1258.53423,11143.0585 C1259.06813,11142.2352 1259.61399,11141.4463 1260.17174,11140.6917 L1256.95509,11138.3141 C1256.3483,11139.135 1255.756,11139.991 1255.17815,11140.8821 L1258.53423,11143.0585 Z M1261.95024,11138.4491 C1262.5787,11137.7118 1263.22089,11137.0146 1263.87676,11136.3572 L1261.04505,11133.5321 C1260.31469,11134.2641 1259.60177,11135.0382 1258.90622,11135.8541 L1261.95024,11138.4491 Z M1265.98385,11134.4215 C1266.71285,11133.8101 1267.45745,11133.2437 1268.21771,11132.722 L1265.95441,11129.4239 C1265.08737,11130.0189 1264.24041,11130.6632 1263.41358,11131.3566 L1265.98385,11134.4215 Z M1270.57889,11131.2725 C1271.39929,11130.8258 1272.23706,11130.4265 1273.09244,11130.0745 L1271.57016,11126.3755 C1270.58104,11126.7826 1269.61292,11127.244 1268.66606,11127.7595 L1270.57889,11131.2725 Z M1275.75078,11129.1488 C1276.63795,11128.8937 1277.54344,11128.685 1278.46756,11128.5228 L1277.77606,11124.583 C1276.71288,11124.7696 1275.66922,11125.0101 1274.64538,11125.3045 L1275.75078,11129.1488 Z M1281.29688,11128.1755 C1282.21776,11128.1092 1283.15629,11128.0856 1284.1126,11128.1046 L1284.19229,11124.1054 C1283.11456,11124.0839 1282.05363,11124.1107 1281.00966,11124.1859 L1281.29688,11128.1755 Z M1286.86088,11128.2722 C1287.78693,11128.3654 1288.72865,11128.4961 1289.68606,11128.6645 L1290.3789,11124.725 C1289.32558,11124.5397 1288.28645,11124.3955 1287.26153,11124.2923 L1286.86088,11128.2722 Z M1292.51253,11129.2599 C1293.42633,11129.4832 1294.35346,11129.7388 1295.2939,11130.0267 L1296.46488,11126.2019 C1295.45197,11125.8918 1294.45105,11125.6159 1293.46207,11125.3742 L1292.51253,11129.2599 Z M1298.06146,11130.9535 C1298.63906,11131.163 1299.22136,11131.3842 1299.80837,11131.6169 L1300.77798,11132.0102 L1302.31752,11128.3183 L1302.21909,11128.2775 C1301.27826,11127.889 1300.34725,11127.5277 1299.4258,11127.1933 L1298.06146,11130.9535 Z M1303.28445,11133.2216 C1304.08932,11133.6655 1304.88292,11134.1574 1305.6654,11134.6973 L1307.93704,11131.4049 C1307.04582,11130.79 1306.13885,11130.2278 1305.21607,11129.7189 L1303.28445,11133.2216 Z M1307.93516,11136.4236 C1308.64732,11137.0168 1309.34978,11137.6519 1310.04257,11138.3287 L1312.83768,11135.4673 C1312.07029,11134.7177 1311.28957,11134.0118 1310.49536,11133.3502 L1307.93516,11136.4236 Z M1312.01224,11140.394 C1312.63714,11141.0953 1313.2536,11141.832 1313.86161,11142.604 L1317.00405,11140.1291 C1316.34652,11139.2943 1315.67808,11138.4954 1314.99859,11137.7329 L1312.01224,11140.394 Z M1315.60854,11144.952 C1316.15433,11145.7272 1316.69279,11146.5321 1317.22393,11147.3665 L1320.59822,11145.2184 C1320.03414,11144.3323 1319.46119,11143.4759 1318.87925,11142.6493 L1315.60854,11144.952 Z M1318.72181,11149.8308 C1319.20225,11150.6578 1319.67629,11151.5099 1320.14394,11152.387 L1323.67356,11150.505 C1323.1833,11149.5855 1322.68565,11148.691 1322.18055,11147.8215 L1318.72181,11149.8308 Z M1321.48651,11155.009 C1321.91221,11155.8741 1322.33228,11156.7609 1322.74674,11157.669 L1326.38567,11156.0082 C1325.95526,11155.0651 1325.51859,11154.1434 1325.07558,11153.243 L1321.48651,11155.009 Z M1323.94415,11160.3887 C1324.32278,11161.2799 1324.69644,11162.1897 1325.06516,11163.1179 L1328.78263,11161.6413 C1328.40237,11160.684 1328.01672,11159.745 1327.62564,11158.8246 L1323.94415,11160.3887 Z M1326.13288,11165.8946 C1326.47236,11166.8063 1326.8074,11167.7344 1327.13803,11168.6786 L1330.9133,11167.3568 C1330.57408,11166.388 1330.23015,11165.4353 1329.88145,11164.4988 L1326.13288,11165.8946 Z M1328.09657,11171.499 C1328.4022,11172.4253 1328.70384,11173.366 1329.00152,11174.3212 L1332.82034,11173.1309 C1332.51614,11172.1549 1332.20775,11171.1931 1331.89515,11170.2457 L1328.09657,11171.499 Z M1329.85525,11177.1363 C1330.13272,11178.0766 1330.40656,11179.0299 1330.6768,11179.9961 L1334.52896,11178.9186 C1334.25365,11177.9343 1333.97458,11176.9628 1333.6917,11176.0042 L1329.85525,11177.1363 Z M1331.4568,11182.8582 C1331.70855,11183.8063 1331.957,11184.7661 1332.20217,11185.7374 L1336.08054,11184.7585 C1335.83138,11183.7713 1335.57881,11182.7957 1335.32282,11181.8316 L1331.4568,11182.8582 Z M1332.90945,11188.6095 C1333.13956,11189.5672 1333.36662,11190.5355 1333.59066,11191.5144 L1337.48985,11190.6221 C1337.26261,11189.6292 1337.03226,11188.6468 1336.79876,11187.675 L1332.90945,11188.6095 Z M1334.24363,11194.4367 C1334.45364,11195.3993 1334.66086,11196.3716 1334.86529,11197.3536 L1338.78132,11196.5383 C1338.57432,11195.544 1338.36445,11194.5592 1338.15171,11193.5841 L1334.24363,11194.4367 Z M1335.46054,11200.2795 C1335.65276,11201.2464 1335.84239,11202.2222 1336.02944,11203.2068 L1339.95916,11202.4602 C1339.77,11201.4646 1339.57821,11200.4776 1339.38376,11199.4995 L1335.46054,11200.2795 Z M1336.57233,11206.129 C1336.74871,11207.0998 1336.92267,11208.0789 1337.09424,11209.066 L1341.03517,11208.3811 C1340.86186,11207.384 1340.68612,11206.3949 1340.50791,11205.414 L1336.57233,11206.129 Z M1337.59576,11212.0158 C1337.75784,11212.9904 1337.91766,11213.9725 1338.07524,11214.9622 L1342.02548,11214.3332 C1341.86646,11213.3345 1341.70516,11212.3433 1341.54156,11211.3596 L1337.59576,11212.0158 Z M1338.53644,11217.922 C1338.68557,11218.9001 1338.83257,11219.8852 1338.97747,11220.8773 L1342.93548,11220.2992 C1342.78937,11219.2988 1342.64113,11218.3055 1342.49074,11217.3191 L1338.53644,11217.922 Z M1339.40233,11223.8492 C1339.53963,11224.8305 1339.67492,11225.8183 1339.80825,11226.8127 L1343.77277,11226.2812 C1343.63844,11225.2792 1343.50211,11224.2838 1343.36375,11223.2949 L1339.40233,11223.8492 Z M1340.19803,11229.7824 C1340.32448,11230.7666 1340.44904,11231.7569 1340.57174,11232.7533 L1344.54176,11232.2645 C1344.4182,11231.2611 1344.29277,11230.2638 1344.16542,11229.2727 L1340.19803,11229.7824 Z M1344.90262,11235.2577 L1340.93019,11235.7266 L1341.27303,11238.6936 L1345.24768,11238.244 C1345.13443,11237.2429 1345.01942,11236.2474 1344.90262,11235.2577 Z M1341.60254,11241.669 C1341.70931,11242.6539 1341.81441,11243.6442 1341.91786,11244.6399 L1345.89644,11244.2265 C1345.79238,11243.2249 1345.68666,11242.2287 1345.57924,11241.2378 L1341.60254,11241.669 Z M1346.20286,11247.2398 L1342.22252,11247.6359 L1342.51284,11250.6162 L1346.49478,11250.2366 C1346.39907,11249.2325 1346.30177,11248.2336 1346.20286,11247.2398 Z M1342.78747,11253.5588 L1343.05363,11256.5359 L1347.03841,11256.1873 L1346.77089,11253.1949 L1342.78747,11253.5588 Z M1347.29535,11259.1892 L1343.3093,11259.5229 L1343.55377,11262.5076 L1347.54099,11262.1882 C1347.46054,11261.1839 1347.37866,11260.1843 1347.29535,11259.1892 Z M1343.78521,11265.4605 L1344.00901,11268.4455 L1347.99831,11268.1531 L1347.77351,11265.1547 L1343.78521,11265.4605 Z M1348.2137,11271.1588 L1344.22348,11271.4383 L1344.42772,11274.4215 L1348.4188,11274.1545 C1348.35171,11273.1518 1348.28335,11272.1533 1348.2137,11271.1588 Z M1348.61483,11277.1529 L1344.62296,11277.4079 L1344.8092,11280.3927 L1348.80179,11280.1494 C1348.74069,11279.1466 1348.67837,11278.1478 1348.61483,11277.1529 Z M1344.98798,11283.3973 L1345.15766,11286.3897 L1349.15155,11286.1687 L1348.98125,11283.1654 L1344.98798,11283.3973 Z M1345.31897,11289.3768 L1345.47258,11292.3654 L1349.46757,11292.1652 L1349.31343,11289.1663 L1345.31897,11289.3768 Z M1345.61867,11295.3544 L1345.75774,11298.3492 L1349.75365,11298.1684 L1349.61414,11295.164 L1345.61867,11295.3544 Z M1345.88947,11301.3375 L1346.01454,11304.3291 L1350.01123,11304.1664 L1349.88579,11301.1659 L1345.88947,11301.3375 Z M1346.13347,11307.3319 L1346.24571,11310.3259 L1350.24305,11310.1802 L1350.13051,11307.1779 L1346.13347,11307.3319 Z M1346.35196,11313.3238 L1346.45228,11316.3205 L1350.45017,11316.1905 L1350.34959,11313.186 L1346.35196,11313.3238 Z M1346.54636,11319.2982 L1346.63563,11322.2954 L1350.63396,11322.1798 L1350.54448,11319.1756 L1346.54636,11319.2982 Z M1346.71971,11325.2925 L1346.79876,11328.2867 L1350.79745,11328.1844 L1350.71823,11325.1837 L1346.71971,11325.2925 Z M1346.87324,11331.2864 L1346.94317,11334.2827 L1350.94215,11334.1922 L1350.87208,11331.1901 L1346.87324,11331.2864 Z M1347.00917,11337.2916 L1347.07095,11340.2875 L1351.07015,11340.2076 L1351.00826,11337.2066 L1347.00917,11337.2916 Z M1347.12906,11343.2814 L1347.18391,11346.279 L1351.18328,11346.2079 L1351.12835,11343.2061 L1347.12906,11343.2814 Z M1347.23599,11349.2895 L1347.28522,11352.2881 L1351.28471,11352.2241 L1351.23542,11349.2221 L1347.23599,11349.2895 Z M1347.33229,11355.2913 L1347.37751,11358.2903 L1351.37707,11358.231 L1351.33182,11355.2299 L1347.33229,11355.2913 Z M1347.42138,11361.2839 L1347.46465,11364.2833 L1351.46424,11364.2257 L1351.42096,11361.2259 L1347.42138,11361.2839 Z M1347.50803,11367.2902 L1347.55214,11370.2906 L1351.55169,11370.2309 L1351.50761,11367.2321 L1347.50803,11367.2902 Z M1347.59826,11373.3036 L1347.64728,11376.3059 L1351.6467,11376.2379 L1351.59776,11373.2407 L1347.59826,11373.3036 Z" id="Path-7-Copy-2" transform="translate(1300.572217, 11250.202053) scale(-1, 1) translate(-1300.572217, -11250.202053) "></path>
        </g>
    </g>
</svg>